<svg width="120" height="120" viewBox="0 0 120 120" fill="none" xmlns="http://www.w3.org/2000/svg">
<g filter="url(#filter0_d_113_20)">
<circle cx="60" cy="60" r="55" fill="white"/>
</g>
<path d="M61.5016 18C38.0263 18 19.0065 37.0249 19 60.4984C19.0065 83.9654 38.0263 102.987 61.5016 103C84.9769 102.987 103.997 83.9622 104 60.4984C104 37.0249 84.9737 18.0032 61.5016 18ZM61.5016 93.2771C43.4014 93.2415 28.7495 78.5973 28.7172 60.4984C28.73 51.8077 32.1881 43.4766 38.3335 37.3311C44.4789 31.1855 52.8103 27.7269 61.5016 27.7132C70.1924 27.726 78.5234 31.1841 84.6684 37.3292C90.8134 43.4743 94.2709 51.8051 94.2829 60.4951C94.2505 78.594 79.6051 93.2447 61.5016 93.2706V93.2771ZM39.2406 60.4984C39.2406 59.6397 38.8994 58.8162 38.2922 58.209C37.6849 57.6018 36.8614 57.2607 36.0026 57.2607C35.1438 57.2607 34.3202 57.6018 33.713 58.209C33.1058 58.8162 32.7646 59.6397 32.7646 60.4984C32.7646 61.3571 33.1058 62.1806 33.713 62.7878C34.3202 63.395 35.1438 63.7361 36.0026 63.7361C36.8614 63.7361 37.6849 63.395 38.2922 62.7878C38.8994 62.1806 39.2406 61.3571 39.2406 60.4984ZM37.7964 70.4447C37.2416 70.7651 36.7943 71.2429 36.5112 71.8176C36.228 72.3923 36.1217 73.038 36.2058 73.6732C36.2898 74.3083 36.5604 74.9042 36.9833 75.3855C37.4062 75.8667 37.9624 76.2117 38.5815 76.3768C39.2005 76.5419 39.8547 76.5196 40.4611 76.3128C41.0675 76.106 41.5989 75.7239 41.988 75.215C42.3772 74.706 42.6066 74.0931 42.6472 73.4537C42.6879 72.8143 42.5379 72.1773 42.2163 71.6232C41.7839 70.8819 41.0759 70.3416 40.2467 70.1202C39.4175 69.8988 38.5343 70.0143 37.79 70.4414L37.7964 70.4447ZM41.0344 44.9444C40.6655 44.7156 40.2545 44.5634 39.8256 44.4967C39.3967 44.4301 38.9588 44.4503 38.5379 44.5562C38.117 44.6621 37.7217 44.8515 37.3755 45.1132C37.0293 45.3749 36.7392 45.7035 36.5225 46.0795C36.3058 46.4556 36.1669 46.8713 36.1141 47.3021C36.0613 47.7328 36.0957 48.1698 36.2151 48.5871C36.3346 49.0043 36.5367 49.3932 36.8094 49.7308C37.0822 50.0684 37.42 50.3477 37.8029 50.5521C38.5439 50.9407 39.4066 51.0274 40.2102 50.794C41.0137 50.5606 41.6957 50.0252 42.1131 49.3C42.5305 48.5749 42.651 47.7164 42.4493 46.9043C42.2476 46.0923 41.7426 45.3899 41.0344 44.9444ZM85.2068 50.5521C85.5947 50.3505 85.9377 50.0725 86.2153 49.7348C86.4928 49.3971 86.6991 49.0067 86.8216 48.5872C86.9442 48.1676 86.9806 47.7276 86.9286 47.2936C86.8765 46.8596 86.7371 46.4407 86.5188 46.062C86.3004 45.6834 86.0077 45.3528 85.6581 45.0903C85.3086 44.8278 84.9096 44.6388 84.485 44.5347C84.0605 44.4305 83.6193 44.4135 83.1879 44.4844C82.7566 44.5554 82.3441 44.7129 81.9753 44.9476C81.2715 45.3954 80.7676 46.0976 80.5689 46.9078C80.3701 47.718 80.4918 48.5737 80.9085 49.2964C81.3252 50.0191 82.0048 50.553 82.8056 50.787C83.6063 51.0209 84.4665 50.9368 85.2068 50.5521ZM50.3662 79.779C49.6256 79.395 48.7654 79.3113 47.9647 79.5453C47.1639 79.7794 46.4843 80.3132 46.0671 81.0356C45.65 81.758 45.5275 82.6135 45.7251 83.424C45.9228 84.2344 46.4254 84.9374 47.1283 85.3868C47.8716 85.8093 48.7519 85.9208 49.577 85.6968C50.4022 85.4728 51.1053 84.9315 51.5328 84.1911C51.9603 83.4506 52.0776 82.5712 51.8591 81.7446C51.6405 80.918 51.1039 80.2114 50.3662 79.779ZM50.3662 41.2177C50.7348 41.0054 51.0578 40.7226 51.3169 40.3853C51.576 40.048 51.766 39.6629 51.8761 39.2521C51.9862 38.8413 52.0142 38.4128 51.9584 37.9912C51.9027 37.5696 51.7644 37.1631 51.5513 36.795C51.2318 36.2407 50.755 35.7935 50.1813 35.5102C49.6076 35.2268 48.9628 35.1199 48.3283 35.2031C47.6939 35.2863 47.0983 35.5557 46.6171 35.9774C46.1358 36.399 45.7904 36.9539 45.6246 37.5719C45.4587 38.1899 45.4799 38.8431 45.6854 39.4491C45.891 40.055 46.2716 40.5864 46.7792 40.9759C47.2868 41.3655 47.8985 41.5958 48.537 41.6377C49.1755 41.6796 49.8121 41.5312 50.3662 41.2113V41.2177ZM85.2068 70.4447C84.4629 70.0177 83.5803 69.9023 82.7516 70.1237C81.9229 70.3451 81.2155 70.8853 80.7837 71.6264C80.3861 72.368 80.2924 73.2351 80.5226 74.0445C80.7528 74.8539 81.2887 75.542 82.0171 75.9633C82.7455 76.3847 83.6093 76.5063 84.4257 76.3023C85.2421 76.0984 85.9472 75.585 86.3919 74.8706C86.821 74.1262 86.9375 73.2421 86.716 72.4119C86.4945 71.5817 85.953 70.8732 85.2101 70.4414L85.2068 70.4447ZM75.8782 35.6067C75.1369 35.219 74.2743 35.1328 73.4709 35.3664C72.6675 35.5999 71.9856 36.1351 71.5677 36.8599C71.1499 37.5847 71.0285 38.4429 71.229 39.2552C71.4295 40.0674 71.9363 40.7706 72.6435 41.2177C73.0122 41.4366 73.4208 41.5801 73.8454 41.6399C74.2701 41.6996 74.7024 41.6744 75.1172 41.5657C75.5321 41.457 75.9212 41.267 76.262 41.0067C76.6028 40.7465 76.8885 40.4211 77.1025 40.0495C77.3165 39.6779 77.4546 39.2675 77.5086 38.8421C77.5627 38.4167 77.5318 37.9848 77.4176 37.5715C77.3034 37.1582 77.1082 36.7717 76.8434 36.4344C76.5786 36.0971 76.2494 35.8158 75.875 35.6067H75.8782ZM87.0168 57.2607C86.1581 57.2607 85.3345 57.6018 84.7272 58.209C84.12 58.8162 83.7789 59.6397 83.7789 60.4984C83.7789 61.3571 84.12 62.1806 84.7272 62.7878C85.3345 63.395 86.1581 63.7361 87.0168 63.7361C87.8756 63.7361 88.6992 63.395 89.3064 62.7878C89.9137 62.1806 90.2548 61.3571 90.2548 60.4984C90.2548 59.6397 89.9137 58.8162 89.3064 58.209C88.6992 57.6018 87.8756 57.2607 87.0168 57.2607ZM61.5016 31.7603C59.7207 31.7603 58.2636 33.2108 58.2636 34.9981L56.758 58.7727L47.0311 65.1186C46.2874 65.5484 45.7449 66.256 45.523 67.0857C45.3011 67.9154 45.4178 68.7993 45.8476 69.543C46.2775 70.2866 46.9851 70.829 47.8149 71.051C48.6447 71.2729 49.5286 71.1561 50.2723 70.7264L60.9771 65.2967C61.1519 65.3194 61.3268 65.3517 61.5113 65.3517C64.1988 65.3517 66.3683 63.1825 66.3683 60.4951L64.7493 34.9948C64.7493 34.1361 64.4082 33.3126 63.8009 32.7054C63.1937 32.0982 62.3701 31.7571 61.5113 31.7571L61.5016 31.7603ZM61.5016 82.7642C59.7207 82.7642 58.2636 84.2115 58.2636 86.0019C58.2636 87.7924 59.7207 89.2397 61.5016 89.2397C63.2825 89.2397 64.7396 87.7924 64.7396 86.0019C64.7396 84.2115 63.2922 82.7642 61.5016 82.7642ZM72.6402 79.779C72.0846 80.0981 71.6362 80.5749 71.3517 81.149C71.0672 81.723 70.9594 82.3686 71.042 83.004C71.1246 83.6393 71.3938 84.2359 71.8156 84.7181C72.2375 85.2004 72.7929 85.5467 73.4116 85.7131C74.0304 85.8796 74.6846 85.8588 75.2915 85.6533C75.8984 85.4478 76.4307 85.0669 76.8209 84.5587C77.2112 84.0506 77.442 83.4381 77.4839 82.7988C77.5259 82.1595 77.3773 81.5221 77.0568 80.9673C76.6268 80.2244 75.9198 79.6823 75.0908 79.4596C74.2618 79.2368 73.3783 79.3517 72.6338 79.779H72.6402Z" fill="#E91A2F"/>
<defs>
<filter id="filter0_d_113_20" x="0" y="0" width="120" height="120" filterUnits="userSpaceOnUse" color-interpolation-filters="sRGB">
<feFlood flood-opacity="0" result="BackgroundImageFix"/>
<feColorMatrix in="SourceAlpha" type="matrix" values="0 0 0 0 0 0 0 0 0 0 0 0 0 0 0 0 0 0 127 0" result="hardAlpha"/>
<feMorphology radius="1" operator="dilate" in="SourceAlpha" result="effect1_dropShadow_113_20"/>
<feOffset/>
<feGaussianBlur stdDeviation="2"/>
<feComposite in2="hardAlpha" operator="out"/>
<feColorMatrix type="matrix" values="0 0 0 0 0 0 0 0 0 0 0 0 0 0 0 0 0 0 0.25 0"/>
<feBlend mode="normal" in2="BackgroundImageFix" result="effect1_dropShadow_113_20"/>
<feBlend mode="normal" in="SourceGraphic" in2="effect1_dropShadow_113_20" result="shape"/>
</filter>
</defs>
</svg>
