<svg width="77" height="57" viewBox="0 0 77 57" fill="none" xmlns="http://www.w3.org/2000/svg">
<path d="M71.5555 0.166664H5.44439C4.19198 0.166664 2.99086 0.664182 2.10527 1.54977C1.21969 2.43536 0.722168 3.63648 0.722168 4.88889V52.1111C0.722168 53.3635 1.21969 54.5646 2.10527 55.4502C2.99086 56.3358 4.19198 56.8333 5.44439 56.8333H71.5555C72.8079 56.8333 74.009 56.3358 74.8946 55.4502C75.7802 54.5646 76.2777 53.3635 76.2777 52.1111V4.88889C76.2777 3.63648 75.7802 2.43536 74.8946 1.54977C74.009 0.664182 72.8079 0.166664 71.5555 0.166664ZM67.9194 52.1111H9.36383L25.8916 35.0167L22.4916 31.7347L5.44439 49.3722V8.47778L34.793 37.6847C35.6778 38.5642 36.8746 39.0579 38.1222 39.0579C39.3697 39.0579 40.5666 38.5642 41.4513 37.6847L71.5555 7.74583V49.0653L54.1777 31.6875L50.8486 35.0167L67.9194 52.1111ZM8.53745 4.88889H67.7305L38.1222 34.3319L8.53745 4.88889Z" fill="#E91A2F"/>
</svg>
