<svg width="120" height="120" viewBox="0 0 120 120" fill="none" xmlns="http://www.w3.org/2000/svg">
<g filter="url(#filter0_d_113_16)">
<circle cx="60" cy="60" r="55" fill="white"/>
</g>
<path d="M41.7998 76.9333C42.7016 76.6703 43.6709 76.7763 44.4945 77.228C45.3181 77.6796 45.9285 78.4399 46.1915 79.3417C46.4545 80.2434 46.3485 81.2127 45.8969 82.0363C45.4452 82.8599 44.6849 83.4703 43.7832 83.7333C42.0123 84.2504 40.7373 84.7958 39.9192 85.2917C40.7621 85.7981 42.0938 86.3648 43.9425 86.8925C48.0332 88.0612 53.8875 88.8333 60.4998 88.8333C67.1121 88.8333 72.9665 88.0612 77.0571 86.8925C78.9094 86.3648 80.2375 85.7981 81.0805 85.2917C80.2659 84.7958 78.9909 84.2504 77.2201 83.7333C76.3325 83.4587 75.5884 82.8464 75.1481 82.0283C74.7078 81.2102 74.6066 80.2519 74.8663 79.3598C75.126 78.4678 75.7259 77.7136 76.5365 77.2597C77.3471 76.8058 78.3036 76.6886 79.1998 76.9333C81.5657 77.6239 83.7332 78.5094 85.3978 79.6462C86.9384 80.7052 88.8332 82.5504 88.8332 85.2917C88.8332 88.0648 86.8923 89.9242 85.3269 90.9831C83.634 92.1235 81.4205 93.0125 79.0015 93.7031C74.1211 95.1021 67.5832 95.9167 60.4998 95.9167C53.4165 95.9167 46.8786 95.1021 41.9982 93.7031C39.5792 93.0125 37.3657 92.1235 35.6728 90.9831C34.1073 89.9206 32.1665 88.0648 32.1665 85.2917C32.1665 82.5504 34.0613 80.7052 35.6019 79.6462C37.2665 78.5094 39.434 77.6239 41.7998 76.9333ZM60.4998 25.0833C67.5447 25.0833 74.3009 27.8819 79.2824 32.8633C84.2638 37.8447 87.0623 44.601 87.0623 51.6458C87.0623 60.7408 82.104 68.1358 76.9686 73.3917C74.9272 75.4597 72.7334 77.3717 70.4059 79.1114C68.3021 80.691 63.4925 83.6519 63.4925 83.6519C62.5804 84.1704 61.5491 84.443 60.4998 84.443C59.4506 84.443 58.4193 84.1704 57.5071 83.6519C55.1192 82.2695 52.8111 80.7536 50.5938 79.1114C48.2653 77.3728 46.0715 75.4608 44.0311 73.3917C38.8957 68.1358 33.9373 60.7408 33.9373 51.6458C33.9373 44.601 36.7359 37.8447 41.7173 32.8633C46.6987 27.8819 53.455 25.0833 60.4998 25.0833ZM60.4998 32.1667C55.3336 32.1667 50.379 34.2189 46.726 37.872C43.0729 41.525 41.0207 46.4796 41.0207 51.6458C41.0207 58.0775 44.5482 63.7867 49.0957 68.4333C52.5169 71.9325 56.2853 74.5958 58.8955 76.2321L60.4998 77.2025L62.1042 76.2321C64.7109 74.5958 68.4828 71.9325 71.904 68.4369C76.4515 63.7867 79.979 58.081 79.979 51.6458C79.979 46.4796 77.9267 41.525 74.2737 37.872C70.6206 34.2189 65.666 32.1667 60.4998 32.1667ZM60.4998 41.0208C61.8951 41.0208 63.2768 41.2957 64.5658 41.8296C65.8549 42.3636 67.0262 43.1462 68.0128 44.1328C68.9995 45.1194 69.7821 46.2907 70.3161 47.5798C70.85 48.8689 71.1248 50.2505 71.1248 51.6458C71.1248 53.0411 70.85 54.4228 70.3161 55.7118C69.7821 57.0009 68.9995 58.1722 68.0128 59.1588C67.0262 60.1455 65.8549 60.9281 64.5658 61.462C63.2768 61.996 61.8951 62.2708 60.4998 62.2708C57.6819 62.2708 54.9794 61.1514 52.9868 59.1588C50.9943 57.1663 49.8748 54.4638 49.8748 51.6458C49.8748 48.8279 50.9943 46.1254 52.9868 44.1328C54.9794 42.1402 57.6819 41.0208 60.4998 41.0208ZM60.4998 48.1042C59.5605 48.1042 58.6597 48.4773 57.9955 49.1415C57.3313 49.8057 56.9582 50.7065 56.9582 51.6458C56.9582 52.5851 57.3313 53.486 57.9955 54.1502C58.6597 54.8144 59.5605 55.1875 60.4998 55.1875C61.4391 55.1875 62.34 54.8144 63.0042 54.1502C63.6684 53.486 64.0415 52.5851 64.0415 51.6458C64.0415 50.7065 63.6684 49.8057 63.0042 49.1415C62.34 48.4773 61.4391 48.1042 60.4998 48.1042Z" fill="#E91A2F"/>
<defs>
<filter id="filter0_d_113_16" x="0" y="0" width="120" height="120" filterUnits="userSpaceOnUse" color-interpolation-filters="sRGB">
<feFlood flood-opacity="0" result="BackgroundImageFix"/>
<feColorMatrix in="SourceAlpha" type="matrix" values="0 0 0 0 0 0 0 0 0 0 0 0 0 0 0 0 0 0 127 0" result="hardAlpha"/>
<feMorphology radius="1" operator="dilate" in="SourceAlpha" result="effect1_dropShadow_113_16"/>
<feOffset/>
<feGaussianBlur stdDeviation="2"/>
<feComposite in2="hardAlpha" operator="out"/>
<feColorMatrix type="matrix" values="0 0 0 0 0 0 0 0 0 0 0 0 0 0 0 0 0 0 0.25 0"/>
<feBlend mode="normal" in2="BackgroundImageFix" result="effect1_dropShadow_113_16"/>
<feBlend mode="normal" in="SourceGraphic" in2="effect1_dropShadow_113_16" result="shape"/>
</filter>
</defs>
</svg>
