<svg width="120" height="120" viewBox="0 0 120 120" fill="none" xmlns="http://www.w3.org/2000/svg">
<g filter="url(#filter0_d_113_19)">
<circle cx="60" cy="60" r="55" fill="white"/>
</g>
<path d="M66.9193 28.0003C73.5642 28.7008 79.7711 31.6495 84.5135 36.3587C89.256 41.0679 92.2498 47.2555 93 53.8983M66.9193 41.0471C70.1256 41.6797 73.0679 43.2619 75.3642 45.5884C77.6605 47.915 79.2048 50.8784 79.7966 54.094M92.837 76.665V86.4501C92.8407 87.3585 92.6547 88.2576 92.291 89.09C91.9272 89.9223 91.3938 90.6694 90.7247 91.2835C90.0557 91.8976 89.2658 92.3652 88.4057 92.6562C87.5456 92.9472 86.6343 93.0553 85.73 92.9735C75.6982 91.8829 66.0619 88.4533 57.5955 82.9601C49.7185 77.9523 43.0403 71.2707 38.0349 63.3898C32.5253 54.8807 29.0966 45.1928 28.0265 35.1108C27.945 34.2089 28.0521 33.2998 28.3411 32.4415C28.63 31.5833 29.0944 30.7946 29.7046 30.1257C30.3149 29.4568 31.0577 28.9224 31.8857 28.5565C32.7137 28.1906 33.6088 28.0012 34.514 28.0003H44.2943C45.8764 27.9847 47.4103 28.5453 48.6099 29.5775C49.8095 30.6096 50.593 32.043 50.8145 33.6105C51.2273 36.7419 51.9928 39.8166 53.0965 42.7758C53.5352 43.9433 53.6301 45.2121 53.3701 46.4318C53.1101 47.6516 52.506 48.7712 51.6295 49.6581L47.4892 53.8004C52.1301 61.9663 58.8879 68.7274 67.0497 73.3707L71.19 69.2283C72.0764 68.3513 73.1955 67.747 74.4146 67.4868C75.6338 67.2267 76.9019 67.3217 78.0688 67.7605C81.0266 68.8648 84.0997 69.6307 87.2296 70.0437C88.8133 70.2672 90.2596 71.0653 91.2935 72.2861C92.3273 73.5069 92.8767 75.0654 92.837 76.665Z" stroke="#E91A2F" stroke-width="6" stroke-linecap="round" stroke-linejoin="round"/>
<defs>
<filter id="filter0_d_113_19" x="0" y="0" width="120" height="120" filterUnits="userSpaceOnUse" color-interpolation-filters="sRGB">
<feFlood flood-opacity="0" result="BackgroundImageFix"/>
<feColorMatrix in="SourceAlpha" type="matrix" values="0 0 0 0 0 0 0 0 0 0 0 0 0 0 0 0 0 0 127 0" result="hardAlpha"/>
<feMorphology radius="1" operator="dilate" in="SourceAlpha" result="effect1_dropShadow_113_19"/>
<feOffset/>
<feGaussianBlur stdDeviation="2"/>
<feComposite in2="hardAlpha" operator="out"/>
<feColorMatrix type="matrix" values="0 0 0 0 0 0 0 0 0 0 0 0 0 0 0 0 0 0 0.25 0"/>
<feBlend mode="normal" in2="BackgroundImageFix" result="effect1_dropShadow_113_19"/>
<feBlend mode="normal" in="SourceGraphic" in2="effect1_dropShadow_113_19" result="shape"/>
</filter>
</defs>
</svg>
