<svg width="40" height="40" viewBox="0 0 40 40" fill="none" xmlns="http://www.w3.org/2000/svg">
<circle cx="20" cy="20" r="20" fill="#E91A2F"/>
<path d="M27.4981 33C28.1617 33 28.798 32.7155 29.2672 32.2092C29.7364 31.7028 30 31.0161 30 30.3V8.7C30 7.98392 29.7364 7.29716 29.2672 6.79081C28.798 6.28446 28.1617 6 27.4981 6H12.5019C11.8383 6 11.202 6.28446 10.7328 6.79081C10.2636 7.29716 10 7.98392 10 8.7V30.3C10 31.0161 10.2636 31.7028 10.7328 32.2092C11.202 32.7155 11.8383 33 12.5019 33H27.4981ZM16.2547 10.05H23.7603V12.75H16.2547V10.05ZM22.8221 18.4875C22.8192 19.2922 22.5217 20.0631 21.9945 20.6323C21.4674 21.2014 20.7532 21.5228 20.0075 21.5264C18.4626 21.5264 17.1929 20.1561 17.1929 18.4875C17.1929 16.8189 18.4626 15.45 20.0075 15.45C20.7531 15.4532 21.4673 15.7742 21.9945 16.3432C22.5217 16.9121 22.8192 17.6829 22.8221 18.4875ZM14.3783 27.8538C14.3783 25.6074 16.9152 23.2976 20.0075 23.2976C23.0998 23.2976 25.6367 25.6074 25.6367 27.8538V28.6138H14.3783V27.8538Z" fill="white"/>
</svg>
