<svg width="25" height="25" viewBox="0 0 25 25" fill="none" xmlns="http://www.w3.org/2000/svg">
<path d="M17.423 2.02277e-06C16.4246 -0.000214461 15.4393 0.228399 14.5411 0.66863C13.6429 1.10886 12.8552 1.74923 12.2374 2.54153C11.6197 3.33383 11.1879 4.2574 10.9746 5.24271C10.7613 6.22802 10.772 7.24938 11.006 8.22989L1.03371 18.3048C0.708517 18.6268 0.449727 19.0107 0.272304 19.4343C0.0948802 19.858 0.00234354 20.3129 4.39405e-05 20.7729C-0.00225566 21.2329 0.0857277 21.6888 0.258906 22.1143C0.432085 22.5397 0.687023 22.9262 1.00898 23.2515C1.33094 23.5767 1.71352 23.8343 2.13462 24.0093C2.55571 24.1842 3.00696 24.2731 3.46227 24.2708C3.91758 24.2685 4.36792 24.175 4.78724 23.9957C5.20657 23.8165 5.58656 23.555 5.90525 23.2265L10.8428 18.2406C10.9302 16.9718 11.3203 15.7432 11.9798 14.6598C12.6393 13.5764 13.5486 12.6704 14.63 12.0192C15.7114 11.368 16.9327 10.991 18.1897 10.9203C19.4467 10.8496 20.7019 11.0873 21.8481 11.6132C22.5334 10.9889 23.0812 10.2259 23.4557 9.37382C23.8303 8.52175 24.0233 7.59963 24.0223 6.66731C24.023 5.94839 23.9087 5.23409 23.684 4.55196C23.6353 4.40501 23.5503 4.27306 23.437 4.16864C23.3236 4.06422 23.1858 3.99079 23.0365 3.95533C22.8872 3.91986 22.7314 3.92354 22.5839 3.96601C22.4364 4.00848 22.3021 4.08833 22.1937 4.19798L19.2612 7.1607C19.0924 7.33096 18.8637 7.42659 18.6252 7.42659C18.3868 7.42659 18.158 7.33096 17.9893 7.1607L16.9346 6.09635C16.7661 5.92588 16.6714 5.6948 16.6714 5.45386C16.6714 5.21293 16.7661 4.98185 16.9346 4.81138L19.8683 1.84745C19.9766 1.73787 20.0553 1.60217 20.0971 1.45323C20.1389 1.30429 20.1423 1.14704 20.1071 0.996372C20.0719 0.845705 19.9992 0.706618 19.8959 0.592288C19.7926 0.477959 19.6621 0.392175 19.5168 0.343066C18.8417 0.115295 18.1346 -0.0005583 17.423 2.02277e-06ZM14.7556 14.5178C14.8451 14.8312 14.8712 15.1596 14.8321 15.4834C14.793 15.8073 14.6897 16.1198 14.5282 16.4023C14.3668 16.6848 14.1506 16.9315 13.8926 17.1276C13.6345 17.3237 13.34 17.4651 13.0266 17.5435L12.3258 17.7181C12.2134 18.4444 12.2158 19.1842 12.333 19.9098L12.981 20.0674C13.2972 20.1444 13.5947 20.2855 13.8553 20.4822C14.1159 20.6789 14.3342 20.9271 14.497 21.2117C14.6597 21.4963 14.7634 21.8113 14.8019 22.1377C14.8404 22.464 14.8128 22.7949 14.7208 23.1101L14.4964 23.875C15.0244 24.343 15.6243 24.7224 16.2783 24.9927L16.8698 24.3636C17.094 24.1253 17.3638 23.9357 17.6627 23.806C17.9617 23.6764 18.2837 23.6096 18.609 23.6096C18.9344 23.6096 19.2563 23.6764 19.5553 23.806C19.8543 23.9357 20.1241 24.1253 20.3483 24.3636L20.947 25C21.5963 24.7331 22.1972 24.3591 22.7253 23.8932L22.4877 23.0616C22.3982 22.7481 22.3722 22.4196 22.4113 22.0957C22.4505 21.7719 22.5539 21.4593 22.7155 21.1768C22.877 20.8943 23.0934 20.6476 23.3515 20.4515C23.6097 20.2555 23.9044 20.1141 24.2179 20.0359L24.9174 19.8613C25.0299 19.135 25.0275 18.3952 24.9102 17.6696L24.2623 17.512C23.9461 17.4349 23.6488 17.2937 23.3883 17.0969C23.1279 16.9001 22.9097 16.6519 22.7471 16.3674C22.5845 16.0828 22.4808 15.7678 22.4424 15.4415C22.404 15.1152 22.4317 14.7844 22.5237 14.4693L22.7469 13.7056C22.2188 13.2357 21.6171 12.858 20.9662 12.5879L20.3747 13.2158C20.1505 13.4542 19.8806 13.6441 19.5815 13.7738C19.2824 13.9036 18.9603 13.9704 18.6348 13.9704C18.3093 13.9704 17.9872 13.9036 17.6881 13.7738C17.389 13.6441 17.1192 13.4542 16.895 13.2158L16.2975 12.5794C15.6447 12.8461 15.0448 13.2219 14.518 13.685L14.7556 14.5178ZM18.6228 20.6081C17.6629 20.6081 16.883 19.7934 16.883 18.7897C16.883 17.786 17.6629 16.9713 18.6228 16.9713C19.5828 16.9713 20.3627 17.786 20.3627 18.7897C20.3627 19.7934 19.5828 20.6081 18.6228 20.6081Z" fill="white"/>
</svg>
