<svg width="40" height="40" viewBox="0 0 40 40" fill="none" xmlns="http://www.w3.org/2000/svg">
<circle cx="20" cy="20" r="20" fill="white"/>
<path d="M9.5 18.8571C11.1547 18.8571 12.5 17.3837 12.5 15.5714C12.5 13.7592 11.1547 12.2857 9.5 12.2857C7.84531 12.2857 6.5 13.7592 6.5 15.5714C6.5 17.3837 7.84531 18.8571 9.5 18.8571ZM30.5 18.8571C32.1547 18.8571 33.5 17.3837 33.5 15.5714C33.5 13.7592 32.1547 12.2857 30.5 12.2857C28.8453 12.2857 27.5 13.7592 27.5 15.5714C27.5 17.3837 28.8453 18.8571 30.5 18.8571ZM32 20.5H29C28.175 20.5 27.4297 20.8645 26.8859 21.4549C28.775 22.5895 30.1156 24.6379 30.4062 27.0714H33.5C34.3297 27.0714 35 26.3373 35 25.4286V23.7857C35 21.9734 33.6547 20.5 32 20.5ZM20 20.5C22.9016 20.5 25.25 17.9279 25.25 14.75C25.25 11.5721 22.9016 9 20 9C17.0984 9 14.75 11.5721 14.75 14.75C14.75 17.9279 17.0984 20.5 20 20.5ZM23.6 22.1429H23.2109C22.2359 22.6562 21.1531 22.9643 20 22.9643C18.8469 22.9643 17.7688 22.6562 16.7891 22.1429H16.4C13.4187 22.1429 11 24.792 11 28.0571V29.5357C11 30.8962 12.0078 32 13.25 32H26.75C27.9922 32 29 30.8962 29 29.5357V28.0571C29 24.792 26.5812 22.1429 23.6 22.1429ZM13.1141 21.4549C12.5703 20.8645 11.825 20.5 11 20.5H8C6.34531 20.5 5 21.9734 5 23.7857V25.4286C5 26.3373 5.67031 27.0714 6.5 27.0714H9.58906C9.88438 24.6379 11.225 22.5895 13.1141 21.4549Z" fill="#E91A2F"/>
</svg>
