<svg width="32" height="32" viewBox="0 0 32 32" fill="none" xmlns="http://www.w3.org/2000/svg">
<circle cx="16" cy="16" r="16" fill="white"/>
<path d="M12 7.001C11.9997 7.53143 11.7888 8.04004 11.4135 8.41492C11.0382 8.78981 10.5294 9.00027 9.999 9C9.46857 8.99974 8.95996 8.78877 8.58508 8.41351C8.21019 8.03825 7.99974 7.52943 8 6.999C8.00027 6.46857 8.21123 5.95996 8.58649 5.58508C8.96175 5.21019 9.47057 4.99974 10.001 5C10.5314 5.00027 11.04 5.21123 11.4149 5.58649C11.7898 5.96175 12.0003 6.47057 12 7.001ZM12.06 10.481H8.06V23.001H12.06V10.481ZM18.38 10.481H14.4V23.001H18.34V16.431C18.34 12.771 23.11 12.431 23.11 16.431V23.001H27.06V15.071C27.06 8.901 20 9.131 18.34 12.161L18.38 10.481Z" fill="#E91A2F"/>
</svg>
