<svg width="32" height="32" viewBox="0 0 32 32" fill="none" xmlns="http://www.w3.org/2000/svg">
<circle cx="16" cy="16" r="16" fill="white"/>
<path d="M26.385 9.96745C25.6216 10.3051 24.812 10.5269 23.983 10.6255C24.8561 10.1026 25.5093 9.28019 25.821 8.31145C25.001 8.79945 24.102 9.14145 23.166 9.32645C22.5366 8.65303 21.7024 8.20641 20.793 8.05603C19.8836 7.90566 18.9499 8.05994 18.1373 8.4949C17.3246 8.92987 16.6784 9.62113 16.2991 10.4612C15.9198 11.3014 15.8287 12.2432 16.04 13.1405C14.3769 13.0572 12.75 12.6252 11.2647 11.8723C9.77951 11.1194 8.46924 10.0626 7.419 8.77045C7.04729 9.4089 6.85196 10.1347 6.853 10.8734C6.853 12.3235 7.592 13.6045 8.713 14.3545C8.04901 14.3335 7.39965 14.1542 6.819 13.8315V13.8825C6.81897 14.8483 7.15303 15.7845 7.76453 16.5321C8.37603 17.2798 9.22731 17.7929 10.174 17.9845C9.55764 18.1517 8.91129 18.1763 8.284 18.0564C8.55092 18.8878 9.07121 19.6149 9.772 20.1358C10.4728 20.6568 11.319 20.9455 12.192 20.9614C11.3244 21.6429 10.3309 22.1466 9.26841 22.4438C8.20593 22.741 7.09529 22.8258 6 22.6934C7.91172 23.9228 10.1371 24.5755 12.41 24.5734C20.104 24.5734 24.31 18.2005 24.31 12.6735C24.31 12.4935 24.306 12.3115 24.298 12.1325C25.1164 11.5408 25.8228 10.808 26.384 9.96845" fill="#E91A2F"/>
</svg>
