<svg width="41" height="41" viewBox="0 0 41 41" fill="none" xmlns="http://www.w3.org/2000/svg">
<circle cx="21" cy="20" r="20" fill="white"/>
<path d="M12.3918 7.46746C12.2722 8.62925 13.0371 9.51974 14.1769 9.50389C23.7727 9.45199 30.7006 16.3799 30.6715 25.9733C30.6659 27.1234 31.554 27.911 32.7158 27.7915C34.0598 27.6532 35.25 26.3813 35.2516 25.0513C35.2835 13.3502 26.8432 4.91 15.132 4.93163C13.8146 4.92067 12.5324 6.10065 12.3918 7.46746ZM10.573 25.1449L10.2285 28.4936C10.1371 29.382 10.7808 30.0258 11.6692 29.9344L15.0179 29.5898C16.0886 29.4797 17.0039 28.36 16.7803 27.3574C16.5523 26.3492 16.0711 25.4609 15.3763 24.7661C14.6815 24.0713 13.7932 23.59 12.7849 23.3621C11.8131 23.1691 10.6832 24.0742 10.573 25.1449ZM11.4472 16.6479C11.3324 17.7641 12.0564 18.6137 13.1538 18.6811C15.4333 18.8398 17.4593 19.727 18.9527 21.2204C20.446 22.7137 21.3332 24.7397 21.4919 27.0192C21.5719 28.1041 22.4089 28.8407 23.5252 28.7258L23.5479 28.7235C24.9147 28.5828 26.1552 27.2607 26.0657 25.9401C25.6785 19.2971 20.8862 14.5047 14.233 14.1074C12.8998 14.0304 11.5902 15.2583 11.4472 16.6479Z" fill="#E91A2F"/>
</svg>
