<svg width="201" height="31" viewBox="0 0 201 31" fill="none" xmlns="http://www.w3.org/2000/svg">
<path d="M14.132 5.07679L12.4487 7.10538H8.51767C9.00247 8.33075 10.5897 9.48627 12.8062 9.10273C13.4633 9.06352 15.6798 8.75166 16.5982 8.94343C17.821 9.20321 17.3113 9.20443 19.5036 10.7631L30.4301 18.7463C31.0996 19.2702 31.9558 19.0558 32.5485 18.4639C33.1412 17.8708 33.1744 16.8195 32.5049 16.2956L18.673 6.4927C17.8072 5.87695 17.5886 5.0241 17.2898 4.04197C16.7089 2.35403 14.5726 1 12.4757 1C10.7861 1 8.96789 2.2946 8.29912 3.42929H12.4487L14.132 5.07679ZM23.6207 19.9717L19.3453 13.3976C19.1765 13.125 18.7498 12.6195 18.3992 12.6195H6.49821C6.14757 12.6195 5.72086 13.125 5.55142 13.3976L1.38319 19.9717H1.27668C0.574714 19.9717 0 20.1978 0 20.8203V26.4753C0 27.0978 0.574714 27.3239 1.27668 27.3239H2.76637V29.3029C2.76637 30.2366 3.41509 31 4.46839 31H5.10673C6.16072 31 6.91594 30.2366 6.91594 29.3029V27.3239H17.9814V29.3029C17.9814 30.236 18.7367 31 19.7899 31H20.4283C21.4823 31 22.131 30.2366 22.131 29.3029V27.3239H23.6207C24.3227 27.3239 24.8974 27.0978 24.8974 26.4753V20.8203C24.8974 20.1978 24.3227 19.9717 23.6207 19.9717ZM3.51122 24.2133C3.29885 24.2172 3.08774 24.1836 2.89025 24.1143C2.69277 24.045 2.51288 23.9415 2.36112 23.8098C2.20937 23.6781 2.08881 23.521 2.0065 23.3475C1.92419 23.174 1.8818 22.9877 1.8818 22.7996C1.8818 22.6114 1.92419 22.4251 2.0065 22.2516C2.08881 22.0781 2.20937 21.921 2.36112 21.7893C2.51288 21.6576 2.69277 21.5541 2.89025 21.4848C3.08774 21.4155 3.29885 21.3819 3.51122 21.3858C3.92871 21.3935 4.32618 21.5458 4.61837 21.8101C4.91055 22.0744 5.07419 22.4296 5.07419 22.7996C5.07419 23.1695 4.91055 23.5247 4.61837 23.789C4.32618 24.0533 3.92871 24.2056 3.51122 24.2133ZM4.7879 19.9717L7.37515 15.1756C7.53214 14.8975 7.94848 14.4576 8.29912 14.4576H16.5982C16.9489 14.4576 17.3645 14.8975 17.5222 15.1756L20.1095 19.9717H4.7879ZM21.3861 24.2133C20.9628 24.2133 20.5568 24.0643 20.2575 23.7991C19.9581 23.534 19.7899 23.1743 19.7899 22.7992C19.7899 22.4242 19.9581 22.0645 20.2575 21.7993C20.5568 21.5342 20.9628 21.3852 21.3861 21.3852C21.8095 21.3852 22.2155 21.5342 22.5148 21.7993C22.8142 22.0645 22.9823 22.4242 22.9823 22.7992C22.9823 23.1743 22.8142 23.534 22.5148 23.7991C22.2155 24.0643 21.8095 24.2133 21.3861 24.2133Z" fill="#212529"/>
<path d="M27.7017 10.2273V6.09091H44.1364V10.2273H38.4489V25H33.3892V10.2273H27.7017ZM44.6696 25V10.8182H49.6184V13.5142H49.7662C50.0247 12.517 50.434 11.7876 50.9941 11.326C51.5604 10.8643 52.2221 10.6335 52.9792 10.6335C53.2008 10.6335 53.4193 10.652 53.6348 10.6889C53.8564 10.7197 54.0687 10.7659 54.2718 10.8274V15.1761C54.0195 15.09 53.7086 15.0253 53.3393 14.9822C52.97 14.9392 52.653 14.9176 52.3883 14.9176C51.8897 14.9176 51.4404 15.0315 51.0403 15.2592C50.6464 15.4808 50.3355 15.7947 50.1078 16.201C49.88 16.6011 49.7662 17.072 49.7662 17.6136V25H44.6696ZM59.2346 25.2216C58.3297 25.2216 57.5295 25.0739 56.834 24.7784C56.1446 24.4768 55.6029 24.0213 55.209 23.4119C54.815 22.8026 54.6181 22.027 54.6181 21.0852C54.6181 20.3097 54.7504 19.648 55.0151 19.1001C55.2798 18.5462 55.6491 18.0938 56.123 17.7429C56.597 17.392 57.1479 17.1243 57.7757 16.9396C58.4097 16.755 59.093 16.6349 59.8255 16.5795C60.6195 16.518 61.2566 16.4441 61.7367 16.358C62.223 16.2656 62.5738 16.1394 62.7892 15.9794C63.0047 15.8132 63.1124 15.5947 63.1124 15.3239V15.2869C63.1124 14.9176 62.9708 14.6345 62.6877 14.4375C62.4045 14.2405 62.0414 14.142 61.5982 14.142C61.1119 14.142 60.7149 14.2498 60.4071 14.4652C60.1055 14.6745 59.9239 14.9976 59.8624 15.4347H55.1721C55.2336 14.5729 55.5075 13.7789 55.9938 13.0526C56.4862 12.3201 57.2033 11.7353 58.1451 11.2983C59.0868 10.8551 60.2625 10.6335 61.6721 10.6335C62.6877 10.6335 63.5987 10.7536 64.405 10.9936C65.2114 11.2275 65.8977 11.5568 66.464 11.9815C67.0302 12.4001 67.4611 12.8925 67.7566 13.4588C68.0582 14.0189 68.209 14.6283 68.209 15.2869V25H63.4448V23.0057H63.334C63.0508 23.535 62.7061 23.9628 62.2999 24.2891C61.8998 24.6153 61.4412 24.8523 60.9242 25C60.4133 25.1477 59.8501 25.2216 59.2346 25.2216ZM60.8965 22.0085C61.2843 22.0085 61.6474 21.9285 61.986 21.7685C62.3307 21.6084 62.6107 21.3776 62.8262 21.076C63.0416 20.7744 63.1493 20.4081 63.1493 19.9773V18.7955C63.0139 18.8509 62.8693 18.9032 62.7154 18.9524C62.5676 19.0017 62.4076 19.0478 62.2353 19.0909C62.0691 19.134 61.8906 19.174 61.6998 19.2109C61.5151 19.2479 61.3212 19.2817 61.1181 19.3125C60.7241 19.3741 60.401 19.4756 60.1486 19.6172C59.9024 19.7526 59.7177 19.9219 59.5946 20.125C59.4777 20.322 59.4192 20.5436 59.4192 20.7898C59.4192 21.1837 59.5577 21.4853 59.8347 21.6946C60.1117 21.9039 60.4656 22.0085 60.8965 22.0085ZM75.7408 17.0227V25H70.6442V10.8182H75.4822V13.5142H75.63C75.9377 12.6155 76.4794 11.9107 77.255 11.3999C78.0367 10.889 78.9477 10.6335 79.9879 10.6335C80.9912 10.6335 81.8622 10.8643 82.6009 11.326C83.3456 11.7815 83.9212 12.4093 84.3274 13.2095C84.7398 14.0097 84.9429 14.9238 84.9368 15.9517V25H79.8402V17.0227C79.8464 16.321 79.6679 15.7701 79.3047 15.37C78.9477 14.9699 78.4491 14.7699 77.8089 14.7699C77.3904 14.7699 77.0241 14.8622 76.7102 15.0469C76.4025 15.2254 76.1655 15.4839 75.9993 15.8224C75.8331 16.1548 75.7469 16.5549 75.7408 17.0227ZM100.416 15.4347H95.7255C95.7009 15.1454 95.5993 14.8961 95.4208 14.6868C95.2423 14.4775 95.0115 14.3175 94.7283 14.2067C94.4513 14.0897 94.1436 14.0312 93.805 14.0312C93.368 14.0312 92.9925 14.1113 92.6786 14.2713C92.3647 14.4313 92.2108 14.6591 92.217 14.9545C92.2108 15.1638 92.3001 15.3577 92.4847 15.5362C92.6755 15.7147 93.0418 15.8532 93.5835 15.9517L96.4641 16.4688C97.9168 16.7334 98.997 17.1797 99.7049 17.8075C100.419 18.4292 100.779 19.2633 100.785 20.3097C100.779 21.3191 100.477 22.1963 99.8803 22.9411C99.2894 23.6797 98.48 24.2521 97.4521 24.6584C96.4303 25.0585 95.2638 25.2585 93.9528 25.2585C91.7861 25.2585 90.0903 24.8153 88.8654 23.929C87.6467 23.0426 86.9665 21.8731 86.8249 20.4205H91.8846C91.9523 20.8698 92.1739 21.2176 92.5494 21.4638C92.931 21.7038 93.4111 21.8239 93.9897 21.8239C94.4575 21.8239 94.8422 21.7438 95.1438 21.5838C95.4516 21.4238 95.6085 21.196 95.6147 20.9006C95.6085 20.6297 95.4731 20.4143 95.2085 20.2543C94.9499 20.0942 94.5437 19.965 93.9897 19.8665L91.4783 19.4233C90.0318 19.1709 88.9485 18.6908 88.2283 17.983C87.5082 17.2751 87.1512 16.3641 87.1573 15.25C87.1512 14.2652 87.4097 13.4311 87.9329 12.7479C88.4622 12.0585 89.2163 11.5353 90.195 11.1783C91.1798 10.8151 92.3462 10.6335 93.6942 10.6335C95.744 10.6335 97.3597 11.0582 98.5415 11.9077C99.7295 12.7571 100.354 13.9328 100.416 15.4347ZM102.738 30.3182V10.8182H107.798V13.2926H107.908C108.093 12.8125 108.364 12.3724 108.721 11.9723C109.078 11.5661 109.521 11.2429 110.05 11.0028C110.58 10.7566 111.195 10.6335 111.897 10.6335C112.833 10.6335 113.722 10.8828 114.565 11.3814C115.415 11.88 116.104 12.6648 116.634 13.7358C117.169 14.8068 117.437 16.1979 117.437 17.9091C117.437 19.5464 117.181 20.9036 116.67 21.9808C116.166 23.058 115.489 23.8613 114.639 24.3906C113.796 24.92 112.87 25.1847 111.86 25.1847C111.195 25.1847 110.601 25.0769 110.078 24.8615C109.561 24.6399 109.118 24.3414 108.749 23.9659C108.385 23.5843 108.105 23.1534 107.908 22.6733H107.835V30.3182H102.738ZM107.724 17.9091C107.724 18.5985 107.813 19.1955 107.991 19.7003C108.176 20.1989 108.435 20.5866 108.767 20.8636C109.106 21.1345 109.509 21.2699 109.977 21.2699C110.444 21.2699 110.841 21.1375 111.168 20.8729C111.5 20.602 111.752 20.2173 111.925 19.7188C112.103 19.214 112.192 18.6108 112.192 17.9091C112.192 17.2074 112.103 16.6072 111.925 16.1087C111.752 15.6039 111.5 15.2192 111.168 14.9545C110.841 14.6837 110.444 14.5483 109.977 14.5483C109.509 14.5483 109.106 14.6837 108.767 14.9545C108.435 15.2192 108.176 15.6039 107.991 16.1087C107.813 16.6072 107.724 17.2074 107.724 17.9091ZM126.404 25.2585C124.865 25.2585 123.548 24.9538 122.453 24.3445C121.357 23.7289 120.517 22.8733 119.932 21.7777C119.347 20.6759 119.055 19.3987 119.055 17.946C119.055 16.4934 119.347 15.2192 119.932 14.1236C120.517 13.0218 121.357 12.1662 122.453 11.5568C123.548 10.9413 124.865 10.6335 126.404 10.6335C127.943 10.6335 129.26 10.9413 130.356 11.5568C131.452 12.1662 132.292 13.0218 132.877 14.1236C133.461 15.2192 133.754 16.4934 133.754 17.946C133.754 19.3987 133.461 20.6759 132.877 21.7777C132.292 22.8733 131.452 23.7289 130.356 24.3445C129.26 24.9538 127.943 25.2585 126.404 25.2585ZM126.441 21.4915C126.872 21.4915 127.244 21.3468 127.558 21.0575C127.872 20.7682 128.115 20.3558 128.288 19.8203C128.46 19.2848 128.546 18.6477 128.546 17.9091C128.546 17.1643 128.46 16.5272 128.288 15.9979C128.115 15.4624 127.872 15.05 127.558 14.7607C127.244 14.4714 126.872 14.3267 126.441 14.3267C125.986 14.3267 125.595 14.4714 125.269 14.7607C124.942 15.05 124.693 15.4624 124.521 15.9979C124.348 16.5272 124.262 17.1643 124.262 17.9091C124.262 18.6477 124.348 19.2848 124.521 19.8203C124.693 20.3558 124.942 20.7682 125.269 21.0575C125.595 21.3468 125.986 21.4915 126.441 21.4915ZM135.822 25V10.8182H140.771V13.5142H140.919C141.177 12.517 141.586 11.7876 142.146 11.326C142.713 10.8643 143.374 10.6335 144.132 10.6335C144.353 10.6335 144.572 10.652 144.787 10.6889C145.009 10.7197 145.221 10.7659 145.424 10.8274V15.1761C145.172 15.09 144.861 15.0253 144.492 14.9822C144.122 14.9392 143.805 14.9176 143.541 14.9176C143.042 14.9176 142.593 15.0315 142.193 15.2592C141.799 15.4808 141.488 15.7947 141.26 16.201C141.032 16.6011 140.919 17.072 140.919 17.6136V25H135.822ZM156.137 10.8182V14.5114H146.793V10.8182H156.137ZM148.603 7.42045H153.699V20.4389C153.699 20.6359 153.733 20.8021 153.801 20.9375C153.868 21.0668 153.973 21.1652 154.115 21.233C154.256 21.2945 154.438 21.3253 154.659 21.3253C154.813 21.3253 154.992 21.3068 155.195 21.2699C155.404 21.233 155.558 21.2022 155.657 21.1776L156.395 24.7599C156.167 24.8277 155.841 24.9107 155.417 25.0092C154.998 25.1077 154.499 25.1723 153.921 25.2031C152.751 25.2647 151.77 25.1446 150.975 24.843C150.181 24.5353 149.584 24.0521 149.184 23.3935C148.784 22.7348 148.59 21.91 148.603 20.919V7.42045ZM163.313 17.0227V25H158.216V10.8182H163.055V13.5142H163.202C163.51 12.6155 164.052 11.9107 164.827 11.3999C165.609 10.889 166.52 10.6335 167.56 10.6335C168.564 10.6335 169.434 10.8643 170.173 11.326C170.918 11.7815 171.493 12.4093 171.9 13.2095C172.312 14.0097 172.515 14.9238 172.509 15.9517V25H167.412V17.0227C167.419 16.321 167.24 15.7701 166.877 15.37C166.52 14.9699 166.021 14.7699 165.381 14.7699C164.963 14.7699 164.596 14.8622 164.282 15.0469C163.975 15.2254 163.738 15.4839 163.572 15.8224C163.405 16.1548 163.319 16.5549 163.313 17.0227ZM181.82 25.2585C180.306 25.2585 179.001 24.9692 177.906 24.3906C176.816 23.8059 175.976 22.9687 175.385 21.8793C174.8 20.7836 174.508 19.4725 174.508 17.946C174.508 16.4811 174.803 15.2008 175.394 14.1051C175.985 13.0095 176.819 12.157 177.896 11.5476C178.974 10.9382 180.245 10.6335 181.71 10.6335C182.781 10.6335 183.75 10.7997 184.618 11.1321C185.486 11.4645 186.228 11.9477 186.843 12.5817C187.459 13.2095 187.933 13.9728 188.265 14.8714C188.597 15.7701 188.764 16.7827 188.764 17.9091V19.0909H176.096V16.2841H184.073C184.067 15.8778 183.963 15.5208 183.759 15.2131C183.562 14.8991 183.295 14.656 182.956 14.4837C182.624 14.3052 182.245 14.2159 181.82 14.2159C181.408 14.2159 181.03 14.3052 180.685 14.4837C180.34 14.656 180.063 14.8961 179.854 15.2038C179.651 15.5116 179.543 15.8717 179.531 16.2841V19.3125C179.531 19.768 179.626 20.1742 179.817 20.5312C180.008 20.8883 180.282 21.1683 180.639 21.3714C180.996 21.5746 181.427 21.6761 181.931 21.6761C182.282 21.6761 182.602 21.6269 182.892 21.5284C183.187 21.4299 183.439 21.2884 183.649 21.1037C183.858 20.9129 184.012 20.6851 184.11 20.4205H188.764C188.604 21.4053 188.225 22.2609 187.628 22.9872C187.031 23.7074 186.24 24.2675 185.255 24.6676C184.276 25.0616 183.132 25.2585 181.82 25.2585ZM199.301 10.8182V14.5114H189.957V10.8182H199.301ZM191.767 7.42045H196.863V20.4389C196.863 20.6359 196.897 20.8021 196.965 20.9375C197.033 21.0668 197.137 21.1652 197.279 21.233C197.42 21.2945 197.602 21.3253 197.824 21.3253C197.977 21.3253 198.156 21.3068 198.359 21.2699C198.568 21.233 198.722 21.2022 198.821 21.1776L199.559 24.7599C199.332 24.8277 199.005 24.9107 198.581 25.0092C198.162 25.1077 197.663 25.1723 197.085 25.2031C195.915 25.2647 194.934 25.1446 194.14 24.843C193.346 24.5353 192.748 24.0521 192.348 23.3935C191.948 22.7348 191.754 21.91 191.767 20.919V7.42045Z" fill="#212529"/>
</svg>
