<svg width="32" height="32" viewBox="0 0 32 32" fill="none" xmlns="http://www.w3.org/2000/svg">
<circle cx="16" cy="16" r="16" fill="#E91A2F"/>
<path d="M25.7148 9.36409L25.7148 9.3641C26.0088 10.1679 26.1693 11.0143 26.1898 11.8699C26.25 12.9338 26.25 13.2841 26.25 15.9902V16C26.25 17.3621 26.235 18.1294 26.2199 18.6892C26.2164 18.8196 26.2129 18.9382 26.2096 19.0501C26.1987 19.4199 26.19 19.7166 26.19 20.12V20.1259L26.1899 20.1259C26.1698 20.9829 26.0093 21.8308 25.7148 22.6359L25.714 22.6381C25.4498 23.3395 25.0343 23.974 24.4971 24.4965C23.9764 25.0346 23.3404 25.4476 22.637 25.7044C21.8349 26.0074 20.987 26.1716 20.1297 26.1899C19.0661 26.25 18.7156 26.25 16.0098 26.25H16H15.9902C13.2844 26.25 12.9339 26.25 11.8703 26.1899C11.0129 26.1716 10.1648 26.0073 9.36249 25.7042C9.36219 25.7041 9.3619 25.704 9.3616 25.7038L9.45 25.47C8.78168 25.2234 8.17693 24.8304 7.68 24.32L25.7148 9.36409ZM25.7148 9.36409L25.7136 9.36093C25.4469 8.6614 25.032 8.02786 24.4974 7.50379C23.9766 6.96552 23.3405 6.55242 22.637 6.29562C21.8349 5.99259 20.987 5.82842 20.1297 5.81015C19.0661 5.75 18.7156 5.75 16.0098 5.75H16H15.9902C13.2844 5.75 12.9339 5.75 11.8703 5.81015C11.0129 5.82842 10.1648 5.99265 9.36252 6.2958C8.66081 6.55493 8.02574 6.9673 7.50354 7.50286C6.96541 8.02354 6.5524 8.65954 6.29564 9.36296C5.99259 10.1651 5.82842 11.013 5.81015 11.8703C5.75 12.9339 5.75 13.2844 5.75 15.9902V16V16.0098C5.75 18.7156 5.75 19.0661 5.81015 20.1297C5.82842 20.987 5.99259 21.8349 6.29562 22.637C6.55239 23.3404 6.9654 23.9765 7.50356 24.4972L25.7148 9.36409ZM15.9993 10.62C14.9357 10.6221 13.8967 10.9394 13.0134 11.5318L21.14 16L21.39 16.0005C21.39 16.0003 21.39 16.0002 21.39 16C21.3913 15.2923 21.2528 14.5914 20.9823 13.9374C20.7117 13.2833 20.3145 12.6891 19.8135 12.1891C19.3125 11.6891 18.7175 11.293 18.0629 11.0237C17.4084 10.7545 16.707 10.6173 15.9993 10.62ZM15.9993 10.62C15.9992 10.62 15.9991 10.62 15.999 10.62L16 10.87L15.9995 10.62C15.9994 10.62 15.9993 10.62 15.9993 10.62ZM23.8903 19.9875L23.8901 19.9875L23.89 19.9971C23.8831 20.6036 23.7732 21.2045 23.5652 21.7742C23.4186 22.1737 23.1831 22.5347 22.8766 22.8299L22.8765 22.8299L22.8716 22.8349C22.573 23.1392 22.2118 23.3748 21.813 23.5256C21.2437 23.7334 20.6432 23.8431 20.0371 23.85L20.0371 23.8498L20.0275 23.8503C19.0341 23.9 18.6694 23.91 16.04 23.91C13.4081 23.91 13.046 23.9099 12.055 23.8504L12.0452 23.8499L12.0353 23.85C11.4078 23.8618 10.783 23.7657 10.1881 23.5659C9.80861 23.4071 9.46554 23.1725 9.17993 22.8764L9.18004 22.8763L9.17387 22.8704C8.86962 22.5759 8.63748 22.2151 8.49554 21.8162L8.49574 21.8161L8.49183 21.8064C8.25918 21.2301 8.12993 20.6172 8.11 19.996C8.10994 19.6125 8.10109 19.3189 8.0903 18.9606C8.08695 18.8496 8.08342 18.7324 8.07991 18.6044C8.06497 18.0605 8.05 17.3128 8.05 16C8.05 13.3681 8.05009 13.006 8.10955 12.015L8.1099 12.015L8.10999 12.0017C8.11426 11.3837 8.22682 10.7711 8.44253 10.1919C8.60395 9.80676 8.85098 9.4634 9.1649 9.1879L9.17683 9.17743L9.18734 9.16554C9.46521 8.85107 9.80821 8.60091 10.1925 8.43241C10.7729 8.22395 11.3843 8.11494 12.001 8.11C12.386 8.10998 12.6802 8.10112 13.0394 8.0903C13.1504 8.08695 13.2676 8.08342 13.3956 8.07991C13.9395 8.06497 14.6872 8.05 16 8.05C18.6319 8.05 18.994 8.05009 19.985 8.10955L19.985 8.10984L19.9971 8.10998C20.6034 8.11694 21.2041 8.2267 21.7736 8.43461C22.1907 8.5895 22.565 8.84121 22.8658 9.16902L22.8722 9.17596L22.879 9.1824C23.1791 9.46365 23.4137 9.80733 23.5664 10.1892C23.7779 10.7699 23.8874 11.3829 23.89 12.001L23.8897 12.001L23.8903 12.0125C23.94 13.0059 23.95 13.3706 23.95 16C23.95 18.6294 23.94 18.9941 23.8903 19.9875ZM21.34 9.21C21.0532 9.21 20.7729 9.29504 20.5344 9.45437C20.296 9.6137 20.1101 9.84016 20.0004 10.1051C19.8906 10.3701 19.8619 10.6616 19.9179 10.9429C19.9738 11.2242 20.1119 11.4825 20.3147 11.6853C20.5175 11.8881 20.7758 12.0262 21.0571 12.0821C21.3384 12.1381 21.6299 12.1094 21.8949 11.9996C22.1598 11.8899 22.3863 11.704 22.5456 11.4656C22.705 11.2271 22.79 10.9468 22.79 10.66C22.79 10.2754 22.6372 9.90662 22.3653 9.6347C22.0934 9.36277 21.7246 9.21 21.34 9.21ZM16 19.08C15.3908 19.08 14.7953 18.8994 14.2888 18.5609C13.7823 18.2225 13.3876 17.7415 13.1545 17.1787C12.9213 16.6159 12.8603 15.9966 12.9792 15.3991C13.098 14.8017 13.3914 14.2529 13.8221 13.8221C14.2529 13.3914 14.8017 13.098 15.3991 12.9792C15.9966 12.8603 16.6159 12.9213 17.1787 13.1545C17.7415 13.3876 18.2225 13.7823 18.5609 14.2888C18.8994 14.7953 19.08 15.3908 19.08 16C19.08 16.4045 19.0003 16.805 18.8455 17.1787C18.6908 17.5523 18.4639 17.8919 18.1779 18.1779C17.8919 18.4639 17.5523 18.6908 17.1787 18.8455C16.805 19.0003 16.4045 19.08 16 19.08Z" fill="white" stroke="white" stroke-width="0.5"/>
</svg>
