<svg width="24" height="20" viewBox="0 0 24 20" fill="none" xmlns="http://www.w3.org/2000/svg">
<path d="M2.23256 20C1.6186 20 1.09321 19.7554 0.656372 19.2662C0.219535 18.7771 0.000744186 18.1883 0 17.5V2.5C0 1.8125 0.218791 1.22417 0.656372 0.735C1.09395 0.245833 1.61935 0.000833333 2.23256 0H8.93023L11.1628 2.5H20.093C20.707 2.5 21.2327 2.745 21.6703 3.235C22.1079 3.725 22.3263 4.31333 22.3256 5H10.2419L8.0093 2.5H2.23256V17.5L4.91163 7.5H24L21.1256 18.2188C20.9767 18.7604 20.7025 19.1929 20.3029 19.5162C19.9033 19.8396 19.4612 20.0008 18.9767 20H2.23256ZM4.57674 17.5H18.9767L20.986 10H6.58605L4.57674 17.5Z" fill="white"/>
</svg>
