<svg width="24" height="20" viewBox="0 0 24 20" fill="none" xmlns="http://www.w3.org/2000/svg">
<path d="M20.4 2H18V1C18 0.734784 17.8736 0.48043 17.6485 0.292893C17.4235 0.105357 17.1183 0 16.8 0C16.4817 0 16.1765 0.105357 15.9515 0.292893C15.7264 0.48043 15.6 0.734784 15.6 1V2H8.4V1C8.4 0.734784 8.27357 0.48043 8.04853 0.292893C7.82348 0.105357 7.51826 0 7.2 0C6.88174 0 6.57652 0.105357 6.35147 0.292893C6.12643 0.48043 6 0.734784 6 1V2H3.6C2.64522 2 1.72955 2.31607 1.05442 2.87868C0.379285 3.44129 0 4.20435 0 5V17C0 17.7956 0.379285 18.5587 1.05442 19.1213C1.72955 19.6839 2.64522 20 3.6 20H20.4C21.3548 20 22.2705 19.6839 22.9456 19.1213C23.6207 18.5587 24 17.7956 24 17V5C24 4.20435 23.6207 3.44129 22.9456 2.87868C22.2705 2.31607 21.3548 2 20.4 2ZM21.6 17C21.6 17.2652 21.4736 17.5196 21.2485 17.7071C21.0235 17.8946 20.7183 18 20.4 18H3.6C3.28174 18 2.97652 17.8946 2.75147 17.7071C2.52643 17.5196 2.4 17.2652 2.4 17V10H21.6V17ZM21.6 8H2.4V5C2.4 4.73478 2.52643 4.48043 2.75147 4.29289C2.97652 4.10536 3.28174 4 3.6 4H6V5C6 5.26522 6.12643 5.51957 6.35147 5.70711C6.57652 5.89464 6.88174 6 7.2 6C7.51826 6 7.82348 5.89464 8.04853 5.70711C8.27357 5.51957 8.4 5.26522 8.4 5V4H15.6V5C15.6 5.26522 15.7264 5.51957 15.9515 5.70711C16.1765 5.89464 16.4817 6 16.8 6C17.1183 6 17.4235 5.89464 17.6485 5.70711C17.8736 5.51957 18 5.26522 18 5V4H20.4C20.7183 4 21.0235 4.10536 21.2485 4.29289C21.4736 4.48043 21.6 4.73478 21.6 5V8Z" fill="white"/>
</svg>
