<svg width="32" height="32" viewBox="0 0 32 32" fill="none" xmlns="http://www.w3.org/2000/svg">
<circle cx="16" cy="16" r="16" fill="#E91A2F"/>
<path d="M16.0708 9H16.1932C17.3235 9.00374 23.0508 9.04111 24.595 9.4173C25.0618 9.53211 25.4872 9.7559 25.8286 10.0663C26.1701 10.3767 26.4156 10.7628 26.5407 11.1861C26.6796 11.6595 26.7772 12.2861 26.8432 12.9326L26.857 13.0621L26.8872 13.386L26.8982 13.5155C26.9876 14.6541 26.9986 15.7203 27 15.9533V16.0467C26.9986 16.2884 26.9862 17.4269 26.8872 18.6128L26.8762 18.7436L26.8639 18.8731C26.7951 19.5856 26.6934 20.2932 26.5407 20.8139C26.4156 21.2372 26.1701 21.6233 25.8286 21.9337C25.4872 22.2441 25.0618 22.4679 24.595 22.5827C22.9999 22.9713 16.9371 22.9988 16.0969 23H15.9017C15.4768 23 13.7194 22.9925 11.8768 22.9352L11.643 22.9278L11.5234 22.9228L11.2883 22.914L11.0531 22.9053C9.52678 22.8443 8.07332 22.7459 7.40365 22.5815C6.93698 22.4668 6.5117 22.2432 6.17027 21.933C5.82884 21.6228 5.58321 21.2369 5.4579 20.8139C5.30527 20.2944 5.20351 19.5856 5.13476 18.8731L5.12376 18.7423L5.11276 18.6128C5.0445 17.7687 5.0069 16.9229 5 16.0766L5 15.9234C5.00275 15.6556 5.01375 14.73 5.08801 13.7086L5.09763 13.5803L5.10176 13.5155L5.11276 13.386L5.14301 13.0621L5.15676 12.9326C5.22276 12.2861 5.3204 11.6582 5.45928 11.1861C5.58437 10.7628 5.82991 10.3767 6.17135 10.0663C6.5128 9.7559 6.93819 9.53211 7.40503 9.4173C8.07469 9.25536 9.52816 9.15571 11.0545 9.09342L11.2883 9.0847L11.5248 9.07723L11.643 9.07349L11.8782 9.06477C13.1869 9.02666 14.4961 9.00548 15.8054 9.00125L16.0708 9ZM13.8006 12.9986V19.0002L19.5168 16.0006L13.8006 12.9986Z" fill="white"/>
</svg>
