<svg width="11" height="14" viewBox="0 0 11 14" fill="none" xmlns="http://www.w3.org/2000/svg">
<path fill-rule="evenodd" clip-rule="evenodd" d="M0.401388 11.6514L7.90139 6.65139L0.401388 1.65139C0.302897 1.58573 0.218302 1.50131 0.152436 1.40296C0.0865687 1.3046 0.0407191 1.19424 0.0175045 1.07816C-0.00571019 0.962092 -0.00583543 0.842582 0.0171363 0.726461C0.0401081 0.610339 0.085727 0.499879 0.151388 0.401388C0.283996 0.202476 0.490191 0.0643886 0.724611 0.0175045C0.840684 -0.00571019 0.960194 -0.00583543 1.07632 0.0171363C1.19244 0.0401081 1.3029 0.085727 1.40139 0.151388L9.90339 5.81939C10.0403 5.91071 10.1526 6.03443 10.2303 6.17957C10.308 6.32471 10.3486 6.48678 10.3486 6.65139C10.3486 6.816 10.308 6.97807 10.2303 7.12321C10.1526 7.26834 10.0403 7.39207 9.90339 7.48339L1.40139 13.1514C1.3029 13.217 1.19244 13.2627 1.07632 13.2856C0.960194 13.3086 0.840684 13.3085 0.724611 13.2853C0.608538 13.2621 0.498174 13.2162 0.39982 13.1503C0.301466 13.0845 0.217049 12.9999 0.151388 12.9014C0.085727 12.8029 0.0401081 12.6924 0.0171363 12.5763C-0.00583543 12.4602 -0.00571019 12.3407 0.0175045 12.2246C0.0407191 12.1085 0.0865687 11.9982 0.152436 11.8998C0.218302 11.8015 0.302897 11.717 0.401388 11.6514Z" fill="#E91A2F"/>
</svg>
