<svg width="18" height="18" viewBox="0 0 18 18" fill="none" xmlns="http://www.w3.org/2000/svg">
<path d="M15.2783 1.8H13.4807V0.9C13.4807 0.661305 13.386 0.432387 13.2174 0.263604C13.0488 0.0948211 12.8202 0 12.5818 0C12.3434 0 12.1148 0.0948211 11.9462 0.263604C11.7777 0.432387 11.683 0.661305 11.683 0.9V1.8H6.28993V0.9C6.28993 0.661305 6.19523 0.432387 6.02666 0.263604C5.8581 0.0948211 5.62948 0 5.39109 0C5.1527 0 4.92408 0.0948211 4.75551 0.263604C4.58695 0.432387 4.49225 0.661305 4.49225 0.9V1.8H2.69457C1.97941 1.8 1.29354 2.08446 0.78784 2.59081C0.282144 3.09716 -0.00195312 3.78392 -0.00195312 4.5V15.3C-0.00195312 16.0161 0.282144 16.7028 0.78784 17.2092C1.29354 17.7155 1.97941 18 2.69457 18H15.2783C15.9935 18 16.6794 17.7155 17.1851 17.2092C17.6908 16.7028 17.9749 16.0161 17.9749 15.3V4.5C17.9749 3.78392 17.6908 3.09716 17.1851 2.59081C16.6794 2.08446 15.9935 1.8 15.2783 1.8ZM16.1772 15.3C16.1772 15.5387 16.0825 15.7676 15.9139 15.9364C15.7453 16.1052 15.5167 16.2 15.2783 16.2H2.69457C2.45618 16.2 2.22756 16.1052 2.05899 15.9364C1.89043 15.7676 1.79573 15.5387 1.79573 15.3V9H16.1772V15.3ZM16.1772 7.2H1.79573V4.5C1.79573 4.2613 1.89043 4.03239 2.05899 3.8636C2.22756 3.69482 2.45618 3.6 2.69457 3.6H4.49225V4.5C4.49225 4.73869 4.58695 4.96761 4.75551 5.1364C4.92408 5.30518 5.1527 5.4 5.39109 5.4C5.62948 5.4 5.8581 5.30518 6.02666 5.1364C6.19523 4.96761 6.28993 4.73869 6.28993 4.5V3.6H11.683V4.5C11.683 4.73869 11.7777 4.96761 11.9462 5.1364C12.1148 5.30518 12.3434 5.4 12.5818 5.4C12.8202 5.4 13.0488 5.30518 13.2174 5.1364C13.386 4.96761 13.4807 4.73869 13.4807 4.5V3.6H15.2783C15.5167 3.6 15.7453 3.69482 15.9139 3.8636C16.0825 4.03239 16.1772 4.2613 16.1772 4.5V7.2Z" fill="#777777" fill-opacity="0.55"/>
</svg>
