<svg width="40" height="40" viewBox="0 0 40 40" fill="none" xmlns="http://www.w3.org/2000/svg">
<circle cx="20" cy="20" r="20" fill="#E91A2F"/>
<path d="M20 7C27.1799 7 33 12.8201 33 20C33 27.1799 27.1799 33 20 33C12.8201 33 7 27.1799 7 20C7 12.8201 12.8201 7 20 7ZM25.2052 21.1414C24.7567 20.4589 24.433 19.9675 23.2006 20.1625C20.8736 20.5317 20.6149 20.9386 20.5044 21.6094L20.4732 21.8122L20.4407 22.028C20.3146 22.9159 20.3185 23.2513 20.7267 23.679C22.3712 25.4054 23.3566 26.6495 23.6556 27.3775C23.8012 27.7324 24.1756 28.8075 23.9182 29.8709C25.4962 29.2424 26.9007 28.2452 28.0145 26.9628C28.1575 26.4766 28.2615 25.8708 28.2615 25.1376V25.0011C28.2615 23.8025 28.2615 23.2552 27.4139 22.7703C27.1415 22.6158 26.8617 22.4748 26.5754 22.3478C26.0983 22.1307 25.7824 21.989 25.356 21.365C25.3045 21.2913 25.2543 21.2167 25.2052 21.1414ZM20 9.3829C16.9879 9.3829 14.267 10.6387 12.3352 12.6537C12.5653 12.8136 12.7655 13.0385 12.9033 13.3479C13.1685 13.942 13.1685 14.5543 13.1685 15.0964C13.1685 15.5228 13.1685 15.9284 13.305 16.2209C13.4922 16.6213 14.3008 16.7929 15.0145 16.9411C15.2706 16.9957 15.5332 17.0503 15.7724 17.1166C16.4302 17.2986 16.9398 17.8901 17.3467 18.3646C17.5157 18.5609 17.7666 18.8508 17.8927 18.9236C17.9577 18.8768 18.167 18.6493 18.2697 18.2762C18.3503 17.9902 18.3269 17.738 18.2112 17.6002C17.4832 16.7422 17.5235 15.0912 17.7484 14.4815C18.102 13.5208 19.207 13.5923 20.0156 13.6443C20.3172 13.6638 20.6006 13.6833 20.8138 13.656C21.6224 13.5546 21.872 12.3235 22.0475 12.083C22.4271 11.563 23.5893 10.7791 24.3095 10.2955C22.9529 9.69229 21.4846 9.38135 20 9.3829Z" fill="white"/>
</svg>
