<svg width="35" height="35" viewBox="0 0 35 35" fill="none" xmlns="http://www.w3.org/2000/svg">
<path d="M23.1516 13.5582C23.8952 13.0123 24.4653 12.3839 24.8619 11.673C25.2585 10.9621 25.4651 10.2067 25.4816 9.40696C25.4816 8.60718 25.2833 7.85183 24.8867 7.14091C24.4901 6.43 23.9117 5.8016 23.1516 5.25571L25.3576 3.50381C26.4153 4.2909 27.225 5.18589 27.7868 6.18879C28.3487 7.19169 28.6379 8.26442 28.6544 9.40696C28.6544 10.5368 28.3735 11.6032 27.8116 12.6061C27.2498 13.609 26.4318 14.5103 25.3576 15.3101L23.1516 13.5582ZM29.7698 0C30.5961 0.609358 31.3314 1.27584 31.9759 1.99946C32.6204 2.72307 33.174 3.48477 33.6367 4.28455C34.0994 5.08433 34.4381 5.91585 34.653 6.77911C34.8678 7.64236 34.9835 8.51832 35 9.40696C35 10.2956 34.8843 11.1716 34.653 12.0348C34.4216 12.8981 34.0829 13.7296 33.6367 14.5294C33.1905 15.3292 32.6452 16.0909 32.0007 16.8145C31.3562 17.5381 30.6126 18.2046 29.7698 18.8139L27.5637 17.062C28.9353 16.0464 29.9847 14.8848 30.7118 13.5773C31.4389 12.2697 31.8107 10.8796 31.8272 9.40696C31.8272 7.94704 31.4636 6.56329 30.7365 5.25571C30.0094 3.94813 28.9518 2.7802 27.5637 1.7519L29.7698 0ZM9.64235 15.3101C8.58475 14.523 7.77502 13.628 7.21317 12.6251C6.65132 11.6222 6.36213 10.5495 6.34561 9.40696C6.34561 8.27711 6.62653 7.21074 7.18839 6.20783C7.75024 5.20493 8.56822 4.30359 9.64235 3.50381L11.8484 5.25571C11.1048 5.8016 10.5347 6.43 10.1381 7.14091C9.7415 7.85183 9.53494 8.60718 9.51841 9.40696C9.51841 10.2067 9.71671 10.9621 10.1133 11.673C10.5099 12.3839 11.0883 13.0123 11.8484 13.5582L9.64235 15.3101ZM5.23017 18.8139C4.40392 18.2046 3.66856 17.5381 3.02408 16.8145C2.3796 16.0909 1.82602 15.3292 1.36331 14.5294C0.900614 13.7296 0.561851 12.8981 0.347026 12.0348C0.1322 11.1716 0.016525 10.2956 0 9.40696C0 8.51832 0.115675 7.64236 0.347026 6.77911C0.578376 5.91585 0.917139 5.08433 1.36331 4.28455C1.80949 3.48477 2.35482 2.72307 2.99929 1.99946C3.64377 1.27584 4.38739 0.609358 5.23017 0L7.43626 1.7519C6.06468 2.7675 5.01534 3.92909 4.28824 5.23667C3.56114 6.54425 3.18933 7.93435 3.1728 9.40696C3.1728 10.8669 3.53636 12.2506 4.26346 13.5582C4.99056 14.8658 6.04816 16.0337 7.43626 17.062L5.23017 18.8139ZM22.2592 9.40696C22.2592 9.97824 22.1022 10.5114 21.7882 11.0065C21.4743 11.5016 21.0198 11.9269 20.4249 12.2824L30.2656 35H26.9441L24.8123 30.1251H10.1877L8.05595 35H4.73442L14.5751 12.2824C13.9967 11.9396 13.5505 11.5207 13.2365 11.0256C12.9226 10.5305 12.7573 9.99093 12.7408 9.40696C12.7408 8.89917 12.8647 8.42311 13.1126 7.97878C13.3605 7.53446 13.6992 7.14726 14.1289 6.81719C14.5585 6.48712 15.0626 6.22688 15.6409 6.03645C16.2193 5.84603 16.839 5.75082 17.5 5.75082C18.161 5.75082 18.7807 5.84603 19.3591 6.03645C19.9374 6.22688 20.4415 6.48712 20.8711 6.81719C21.3008 7.14726 21.6395 7.53446 21.8874 7.97878C22.1353 8.42311 22.2592 8.89917 22.2592 9.40696ZM17.5 8.18825C17.0704 8.18825 16.6985 8.30885 16.3846 8.55005C16.0706 8.79126 15.9136 9.0769 15.9136 9.40696C15.9136 9.73703 16.0706 10.0227 16.3846 10.2639C16.6985 10.5051 17.0704 10.6257 17.5 10.6257C17.9297 10.6257 18.3015 10.5051 18.6154 10.2639C18.9294 10.0227 19.0864 9.73703 19.0864 9.40696C19.0864 9.0769 18.9294 8.79126 18.6154 8.55005C18.3015 8.30885 17.9297 8.18825 17.5 8.18825ZM17.5 13.2535L14.4016 20.3754H20.5984L17.5 13.2535ZM23.7712 27.6877L21.6395 22.8128H13.3605L11.2288 27.6877H23.7712Z" fill="#E91A2F"/>
</svg>
