<svg width="46" height="35" viewBox="0 0 46 35" fill="none" xmlns="http://www.w3.org/2000/svg">
<path d="M39.2058 5.87819C35.0756 2.18087 29.5115 0.073794 23.6885 0.00190171C17.8655 -0.0699906 12.2394 1.89893 7.99824 5.49289C3.75706 9.08685 1.23281 14.0245 0.958528 19.2632C0.684244 24.5019 2.6814 29.6316 6.52825 33.569L6.54509 33.5858C6.57595 33.6153 6.60495 33.6456 6.63862 33.6743C6.70783 33.745 6.7864 33.8251 6.87899 33.9085C7.24212 34.256 7.68101 34.5324 8.1682 34.7202C8.65538 34.908 9.18037 35.0032 9.71029 34.9999C10.2402 34.9966 10.7637 34.8948 11.2479 34.7009C11.7322 34.507 12.1667 34.2252 12.5245 33.8731C13.9009 32.5259 15.5727 31.4505 17.4342 30.7149C19.2958 29.9793 21.3065 29.5995 23.3393 29.5995C25.3722 29.5995 27.3829 29.9793 29.2444 30.7149C31.1059 31.4505 32.7778 32.5259 34.1542 33.8731C34.5146 34.227 34.9526 34.5098 35.4407 34.7033C35.9287 34.8969 36.456 34.9971 36.9893 34.9975C37.5225 34.998 38.0501 34.8988 38.5385 34.7061C39.0269 34.5134 39.4656 34.2314 39.8268 33.8781L40.127 33.5833L40.1439 33.5665C43.9342 29.712 45.948 24.6999 45.7742 19.5536C45.6004 14.4073 43.252 9.51474 39.2086 5.87482L39.2058 5.87819ZM21.8372 6.69943C21.8372 6.342 21.9949 5.99921 22.2755 5.74647C22.5562 5.49373 22.9368 5.35174 23.3337 5.35174C23.7306 5.35174 24.1112 5.49373 24.3919 5.74647C24.6725 5.99921 24.8302 6.342 24.8302 6.69943V9.39481C24.8302 9.75224 24.6725 10.095 24.3919 10.3478C24.1112 10.6005 23.7306 10.7425 23.3337 10.7425C22.9368 10.7425 22.5562 10.6005 22.2755 10.3478C21.9949 10.095 21.8372 9.75224 21.8372 9.39481V6.69943ZM11.3619 21.524H8.36892C7.97203 21.524 7.5914 21.382 7.31075 21.1293C7.03011 20.8766 6.87244 20.5338 6.87244 20.1763C6.87244 19.8189 7.03011 19.4761 7.31075 19.2234C7.5914 18.9706 7.97203 18.8286 8.36892 18.8286H11.3619C11.7588 18.8286 12.1394 18.9706 12.4201 19.2234C12.7007 19.4761 12.8584 19.8189 12.8584 20.1763C12.8584 20.5338 12.7007 20.8766 12.4201 21.1293C12.1394 21.382 11.7588 21.524 11.3619 21.524ZM15.9261 13.5053C15.6455 13.7578 15.265 13.8997 14.8683 13.8997C14.4716 13.8997 14.0911 13.7578 13.8105 13.5053L11.6939 11.6C11.4132 11.3472 11.2556 11.0044 11.2556 10.6469C11.2556 10.2894 11.4132 9.9466 11.6939 9.69383C11.9746 9.44106 12.3553 9.29906 12.7522 9.29906C13.1491 9.29906 13.5298 9.44106 13.8105 9.69383L15.9261 11.6C16.2066 11.8527 16.3641 12.1953 16.3641 12.5526C16.3641 12.9099 16.2066 13.2526 15.9261 13.5053ZM29.8902 15.451L25.4475 21.8104C25.2657 22.0373 25.0447 22.2363 24.7928 22.4C24.1847 22.7821 23.4338 22.9327 22.7031 22.8193C21.9724 22.7059 21.3208 22.3375 20.8899 21.7941C20.4589 21.2507 20.2833 20.5762 20.4011 19.917C20.5189 19.2577 20.9207 18.6669 21.5192 18.2727L28.5807 14.2718C28.7413 14.171 28.9322 14.117 29.1279 14.117C29.3236 14.117 29.5145 14.171 29.675 14.2718C29.8766 14.4028 30.0124 14.6005 30.0527 14.8214C30.0931 15.0424 30.0346 15.2687 29.8902 15.451ZM32.8569 13.5053C32.574 13.7473 32.1973 13.8803 31.807 13.8758C31.4168 13.8713 31.044 13.7297 30.768 13.4812C30.4921 13.2327 30.3348 12.8969 30.3298 12.5455C30.3249 12.194 30.4725 11.8548 30.7413 11.6L32.8569 9.69383C33.1376 9.44106 33.5183 9.29906 33.9152 9.29906C34.3122 9.29906 34.6928 9.44106 34.9735 9.69383C35.2542 9.9466 35.4119 10.2894 35.4119 10.6469C35.4119 11.0044 35.2542 11.3472 34.9735 11.6L32.8569 13.5053ZM38.2985 21.524H35.3056C34.9087 21.524 34.528 21.382 34.2474 21.1293C33.9667 20.8766 33.8091 20.5338 33.8091 20.1763C33.8091 19.8189 33.9667 19.4761 34.2474 19.2234C34.528 18.9706 34.9087 18.8286 35.3056 18.8286H38.2985C38.6954 18.8286 39.076 18.9706 39.3567 19.2234C39.6373 19.4761 39.795 19.8189 39.795 20.1763C39.795 20.5338 39.6373 20.8766 39.3567 21.1293C39.076 21.382 38.6954 21.524 38.2985 21.524Z" fill="#E91A2F"/>
</svg>
