<svg width="51" height="40" viewBox="0 0 51 40" fill="none" xmlns="http://www.w3.org/2000/svg">
<path d="M4.95641 17.6001H8.97531V27.2H6.56397C5.92444 27.2 5.31111 27.4529 4.85889 27.903C4.40668 28.3531 4.15263 28.9635 4.15263 29.6C4.15263 30.2365 4.40668 30.847 4.85889 31.2971C5.31111 31.7472 5.92444 32 6.56397 32H45.1455C45.785 32 46.3983 31.7472 46.8505 31.2971C47.3028 30.847 47.5568 30.2365 47.5568 29.6C47.5568 28.9635 47.3028 28.3531 46.8505 27.903C46.3983 27.4529 45.785 27.2 45.1455 27.2H42.7341V17.6001H46.753C47.2781 17.6001 47.7888 17.4296 48.2076 17.1144C48.6264 16.7992 48.9304 16.3566 49.0734 15.8538C49.2164 15.351 49.1906 14.8154 49 14.3285C48.8093 13.8416 48.4641 13.43 48.017 13.1561L27.1187 0.356122C26.7386 0.123282 26.301 0 25.8547 0C25.4084 0 24.9709 0.123282 24.5908 0.356122L3.69246 13.1561C3.24529 13.43 2.90016 13.8416 2.70949 14.3285C2.51881 14.8154 2.49302 15.351 2.63603 15.8538C2.77904 16.3566 3.08304 16.7992 3.50184 17.1144C3.92064 17.4296 4.43136 17.6001 4.95641 17.6001ZM13.798 17.6001H18.6207V27.2H13.798V17.6001ZM28.2661 17.6001V27.2H23.4434V17.6001H28.2661ZM37.9114 27.2H33.0888V17.6001H37.9114V27.2ZM25.8547 5.21811L38.233 12.8001H13.4765L25.8547 5.21811ZM50.7719 37.6C50.7719 38.2365 50.5179 38.847 50.0657 39.2971C49.6135 39.7471 49.0001 40 48.3606 40H3.34884C2.70932 40 2.09598 39.7471 1.64377 39.2971C1.19155 38.847 0.9375 38.2365 0.9375 37.6C0.9375 36.9635 1.19155 36.353 1.64377 35.903C2.09598 35.4529 2.70932 35.2 3.34884 35.2H48.3606C49.0001 35.2 49.6135 35.4529 50.0657 35.903C50.5179 36.353 50.7719 36.9635 50.7719 37.6Z" fill="#E91A2F"/>
</svg>
