<svg width="40" height="40" viewBox="0 0 40 40" fill="none" xmlns="http://www.w3.org/2000/svg">
<circle cx="20" cy="20" r="20" fill="#E91A2F"/>
<path d="M31.75 25.5H26.75C26.0596 25.5 25.5 26.0596 25.5 26.75V31.75C25.5 32.4404 26.0596 33 26.75 33H31.75C32.4404 33 33 32.4404 33 31.75V26.75C33 26.0596 32.4404 25.5 31.75 25.5Z" stroke="white" stroke-width="2" stroke-linecap="round" stroke-linejoin="round"/>
<path d="M14.25 25.5H9.25C8.55964 25.5 8 26.0596 8 26.75V31.75C8 32.4404 8.55964 33 9.25 33H14.25C14.9404 33 15.5 32.4404 15.5 31.75V26.75C15.5 26.0596 14.9404 25.5 14.25 25.5Z" stroke="white" stroke-width="2" stroke-linecap="round" stroke-linejoin="round"/>
<path d="M23 8H18C17.3096 8 16.75 8.55964 16.75 9.25V14.25C16.75 14.9404 17.3096 15.5 18 15.5H23C23.6904 15.5 24.25 14.9404 24.25 14.25V9.25C24.25 8.55964 23.6904 8 23 8Z" stroke="white" stroke-width="2" stroke-linecap="round" stroke-linejoin="round"/>
<path d="M11.75 25.5V21.75C11.75 21.4185 11.8817 21.1005 12.1161 20.8661C12.3505 20.6317 12.6685 20.5 13 20.5H28C28.3315 20.5 28.6495 20.6317 28.8839 20.8661C29.1183 21.1005 29.25 21.4185 29.25 21.75V25.5M20.5 20.5V15.5" stroke="white" stroke-width="2" stroke-linecap="round" stroke-linejoin="round"/>
</svg>
