<svg width="40" height="40" viewBox="0 0 40 40" fill="none" xmlns="http://www.w3.org/2000/svg">
<circle cx="20" cy="20" r="20" fill="#E91A2F"/>
<path d="M28.8323 23.6253C29.6015 22.0888 30.0026 20.3744 30 18.6337C30 12.7608 25.5229 8 20 8C14.4771 8 10 12.7608 10 18.6337C9.99597 21.1422 10.8298 23.5707 12.353 25.4862L12.3647 25.5019C12.3688 25.5056 12.3724 25.5106 12.3753 25.5144H12.353L18.2871 32.2136C18.507 32.4619 18.7724 32.6598 19.067 32.795C19.3615 32.9302 19.6789 33 19.9997 33C20.3205 33 20.6379 32.9302 20.9324 32.795C21.227 32.6598 21.4924 32.4619 21.7124 32.2136L27.647 25.5144H27.6247L27.6341 25.5025L27.6353 25.5012C27.6776 25.4474 27.72 25.3937 27.7618 25.3386C28.1698 24.8054 28.5283 24.232 28.8323 23.6253ZM20.0029 22.6989C19.0669 22.6989 18.1692 22.3035 17.5073 21.5997C16.8454 20.8959 16.4735 19.9412 16.4735 18.9459C16.4735 17.9505 16.8454 16.9959 17.5073 16.292C18.1692 15.5882 19.0669 15.1928 20.0029 15.1928C20.939 15.1928 21.8367 15.5882 22.4986 16.292C23.1605 16.9959 23.5323 17.9505 23.5323 18.9459C23.5323 19.9412 23.1605 20.8959 22.4986 21.5997C21.8367 22.3035 20.939 22.6989 20.0029 22.6989Z" fill="white"/>
</svg>
