<svg width="32" height="42" viewBox="0 0 32 42" fill="none" xmlns="http://www.w3.org/2000/svg">
<path d="M29.9153 1.98881C29.0636 1.19387 27.9119 0.75 26.7143 0.75H5.28571C4.08812 0.75 2.9364 1.19387 2.08468 1.98881C1.23237 2.7843 0.75 3.86705 0.75 5V37C0.75 38.133 1.23237 39.2157 2.08468 40.0112C2.9364 40.8061 4.08812 41.25 5.28571 41.25H26.7143C27.9119 41.25 29.0636 40.8061 29.9153 40.0112C30.7676 39.2157 31.25 38.133 31.25 37V5C31.25 3.86705 30.7676 2.7843 29.9153 1.98881ZM4.25 37V32.026H27.75V37C27.75 37.2462 27.6454 37.4861 27.4528 37.6658C27.2597 37.846 26.9943 37.95 26.7143 37.95H5.28571C5.00567 37.95 4.74028 37.846 4.54716 37.6658C4.35462 37.4861 4.25 37.2462 4.25 37ZM17.6858 33.403C17.2359 32.9832 16.6293 32.75 16 32.75C15.3707 32.75 14.7641 32.9832 14.3142 33.403C13.8637 33.8234 13.6071 34.3975 13.6071 35C13.6071 35.6025 13.8637 36.1766 14.3142 36.597C14.7641 37.0168 15.3707 37.25 16 37.25C16.6293 37.25 17.2359 37.0168 17.6858 36.597C18.1363 36.1766 18.3929 35.6025 18.3929 35C18.3929 34.3975 18.1363 33.8234 17.6858 33.403ZM5.28571 4.05H26.7143C26.9943 4.05 27.2597 4.15399 27.4528 4.33424C27.6454 4.51394 27.75 4.75383 27.75 5V28.726H4.25V5C4.25 4.75383 4.35462 4.51394 4.54716 4.33424C4.74028 4.15399 5.00567 4.05 5.28571 4.05Z" fill="#E91A2F" stroke="#E91A2F" stroke-width="0.5"/>
</svg>
