<svg width="50" height="40" viewBox="0 0 50 40" fill="none" xmlns="http://www.w3.org/2000/svg">
<path d="M46.25 0H3.75C2.75544 0 1.80161 0.395088 1.09835 1.09835C0.395088 1.80161 0 2.75544 0 3.75L0 28.75C0 29.7446 0.395088 30.6984 1.09835 31.4017C1.80161 32.1049 2.75544 32.5 3.75 32.5H22.5V35H8.75C8.41848 35 8.10054 35.1317 7.86612 35.3661C7.6317 35.6005 7.5 35.9185 7.5 36.25V38.75C7.5 39.0815 7.6317 39.3995 7.86612 39.6339C8.10054 39.8683 8.41848 40 8.75 40H41.25C41.5815 40 41.8995 39.8683 42.1339 39.6339C42.3683 39.3995 42.5 39.0815 42.5 38.75V36.25C42.5 35.9185 42.3683 35.6005 42.1339 35.3661C41.8995 35.1317 41.5815 35 41.25 35H27.5V32.5H46.25C47.2446 32.5 48.1984 32.1049 48.9016 31.4017C49.6049 30.6984 50 29.7446 50 28.75V3.75C50 2.75544 49.6049 1.80161 48.9016 1.09835C48.1984 0.395088 47.2446 0 46.25 0ZM45 27.5H5V5H45V27.5Z" fill="#E91A2F"/>
</svg>
