<svg width="34" height="40" viewBox="0 0 34 40" fill="none" xmlns="http://www.w3.org/2000/svg">
<path d="M17 40C12.0771 38.8333 8.01267 36.1747 4.80675 32.024C1.60083 27.8733 -0.00141573 23.2653 9.38604e-07 18.2V6L17 0L34 6V18.2C34 23.2667 32.3978 27.8753 29.1933 32.026C25.9888 36.1767 21.9243 38.8347 17 40ZM17 35.8C20.4354 34.8 23.3042 32.8247 25.6062 29.874C27.9083 26.9233 29.2542 23.632 29.6438 20H17V4.25L4.25 8.75V19.1C4.25 19.3333 4.28542 19.6333 4.35625 20H17V35.8Z" fill="#E91A2F"/>
</svg>
