<svg width="50" height="35" viewBox="0 0 50 35" fill="none" xmlns="http://www.w3.org/2000/svg">
<path d="M4.23464 13.3516C9.62621 8.17969 16.94 5 25.0039 5C33.0678 5 40.3816 8.17969 45.7732 13.3516C46.7733 14.3047 48.3518 14.2734 49.305 13.2812C50.2583 12.2891 50.2271 10.7031 49.2347 9.75C42.9524 3.71094 34.4118 0 25.0039 0C15.596 0 7.05545 3.71094 0.76528 9.74219C-0.227082 10.7031 -0.258337 12.2812 0.694955 13.2812C1.64825 14.2812 3.23446 14.3125 4.22682 13.3516H4.23464ZM25.0039 17.5C29.4422 17.5 33.4898 19.1484 36.5841 21.875C37.6233 22.7891 39.2017 22.6875 40.1159 21.6562C41.0302 20.625 40.9286 19.0391 39.8971 18.125C35.9277 14.625 30.708 12.5 25.0039 12.5C19.2998 12.5 14.0801 14.625 10.1185 18.125C9.07924 19.0391 8.98547 20.6172 9.89969 21.6562C10.8139 22.6953 12.3923 22.7891 13.4316 21.875C16.518 19.1484 20.5656 17.5 25.0117 17.5H25.0039ZM30.0048 30C30.0048 28.6739 29.4779 27.4021 28.5401 26.4645C27.6022 25.5268 26.3302 25 25.0039 25C23.6776 25 22.4056 25.5268 21.4678 26.4645C20.5299 27.4021 20.003 28.6739 20.003 30C20.003 31.3261 20.5299 32.5979 21.4678 33.5355C22.4056 34.4732 23.6776 35 25.0039 35C26.3302 35 27.6022 34.4732 28.5401 33.5355C29.4779 32.5979 30.0048 31.3261 30.0048 30Z" fill="#E91A2F"/>
</svg>
