<svg width="40" height="40" viewBox="0 0 40 40" fill="none" xmlns="http://www.w3.org/2000/svg">
<circle cx="20" cy="20" r="20" fill="#E91A2F"/>
<path d="M7.54078 17.6295C10.7757 14.6741 15.164 12.8571 20.0023 12.8571C24.8407 12.8571 29.229 14.6741 32.4639 17.6295C33.064 18.1741 34.0111 18.1562 34.583 17.5893C35.155 17.0223 35.1362 16.1161 34.5408 15.5714C30.7714 12.1205 25.6471 10 20.0023 10C14.3576 10 9.23327 12.1205 5.45917 15.567C4.86375 16.1161 4.845 17.0179 5.41697 17.5893C5.98895 18.1607 6.94068 18.1786 7.53609 17.6295H7.54078ZM20.0023 20C22.6653 20 25.0939 20.942 26.9504 22.5C27.574 23.0223 28.521 22.9643 29.0696 22.375C29.6181 21.7857 29.5571 20.8795 28.9383 20.3571C26.5566 18.3571 23.4248 17.1429 20.0023 17.1429C16.5799 17.1429 13.4481 18.3571 11.0711 20.3571C10.4475 20.8795 10.3913 21.7813 10.9398 22.375C11.4884 22.9688 12.4354 23.0223 13.0589 22.5C14.9108 20.942 17.3394 20 20.007 20H20.0023ZM23.0029 27.1429C23.0029 26.3851 22.6867 25.6584 22.124 25.1226C21.5613 24.5867 20.7981 24.2857 20.0023 24.2857C19.2066 24.2857 18.4434 24.5867 17.8807 25.1226C17.3179 25.6584 17.0018 26.3851 17.0018 27.1429C17.0018 27.9006 17.3179 28.6273 17.8807 29.1632C18.4434 29.699 19.2066 30 20.0023 30C20.7981 30 21.5613 29.699 22.124 29.1632C22.6867 28.6273 23.0029 27.9006 23.0029 27.1429Z" fill="white"/>
</svg>
