<svg width="10" height="20" viewBox="0 0 10 20" fill="none" xmlns="http://www.w3.org/2000/svg">
<path fill-rule="evenodd" clip-rule="evenodd" d="M0.387866 17.5172L7.63522 10L0.387866 2.48277C0.292693 2.38405 0.210948 2.25714 0.1473 2.10927C0.0836525 1.9614 0.0393474 1.79547 0.0169148 1.62096C-0.00551783 1.44645 -0.00563885 1.26678 0.0165591 1.09219C0.038757 0.917612 0.0828391 0.751541 0.146288 0.603465C0.274429 0.304411 0.473678 0.0968047 0.700201 0.026317C0.812364 -0.00858496 0.927848 -0.00877325 1.04006 0.0257636C1.15227 0.0603004 1.25901 0.128886 1.35418 0.227604L9.56978 8.74913C9.70212 8.88643 9.81063 9.07244 9.88568 9.29065C9.96073 9.50885 10 9.75251 10 10C10 10.2475 9.96073 10.4911 9.88568 10.7094C9.81063 10.9276 9.70212 11.1136 9.56978 11.2509L1.35418 19.7724C1.25901 19.8711 1.15227 19.9397 1.04006 19.9742C0.927848 20.0088 0.812364 20.0086 0.700201 19.9737C0.588038 19.9388 0.481392 19.8699 0.386351 19.7708C0.291311 19.6718 0.209737 19.5446 0.146288 19.3965C0.0828391 19.2485 0.038757 19.0824 0.0165591 18.9078C-0.00563885 18.7332 -0.00551783 18.5535 0.0169148 18.379C0.0393474 18.2045 0.0836525 18.0386 0.1473 17.8907C0.210948 17.7429 0.292693 17.6159 0.387866 17.5172Z" fill="#343940"/>
</svg>
