<svg width="25" height="24" viewBox="0 0 25 24" fill="none" xmlns="http://www.w3.org/2000/svg">
<path d="M3.625 17.8429C2.4375 16.5864 1.53667 15.1937 0.9225 13.6649C0.308333 12.1361 0.000833333 10.555 0 8.92147C0 7.28796 0.3075 5.70681 0.9225 4.17801C1.5375 2.64921 2.43833 1.25654 3.625 0L5.125 1.50785C4.125 2.51309 3.375 3.67037 2.875 4.97969C2.375 6.289 2.125 7.60293 2.125 8.92147C2.125 10.2408 2.375 11.5552 2.875 12.8645C3.375 14.1738 4.125 15.3307 5.125 16.3351L3.625 17.8429ZM6.625 14.8272C5.8125 14.0105 5.19292 13.089 4.76625 12.0628C4.33958 11.0366 4.12583 9.98953 4.125 8.92147C4.125 7.8534 4.33875 6.80628 4.76625 5.7801C5.19375 4.75393 5.81333 3.83246 6.625 3.01571L8.125 4.52356C7.5 5.089 7.03125 5.75916 6.71875 6.53403C6.40625 7.3089 6.25 8.10471 6.25 8.92147C6.25 9.67539 6.40625 10.4398 6.71875 11.2147C7.03125 11.9895 7.5 12.6911 8.125 13.3194L6.625 14.8272ZM6.25 24L10.4687 11.2775C10.1354 10.9843 9.86958 10.6387 9.67125 10.2408C9.47292 9.84293 9.37417 9.40314 9.375 8.92147C9.375 8.04188 9.67708 7.29843 10.2812 6.6911C10.8854 6.08377 11.625 5.7801 12.5 5.7801C13.375 5.7801 14.1146 6.08377 14.7187 6.6911C15.3229 7.29843 15.625 8.04188 15.625 8.92147C15.625 9.40314 15.5258 9.84293 15.3275 10.2408C15.1292 10.6387 14.8637 10.9843 14.5312 11.2775L18.75 24H16.25L15.4375 21.4869H9.59375L8.75 24H6.25ZM10.4062 18.9738H14.5937L12.5 12.6911L10.4062 18.9738ZM18.375 14.8272L16.875 13.3194C17.5 12.7539 17.9687 12.0838 18.2812 11.3089C18.5937 10.534 18.75 9.73822 18.75 8.92147C18.75 8.16754 18.5937 7.40314 18.2812 6.62827C17.9687 5.8534 17.5 5.15183 16.875 4.52356L18.375 3.01571C19.1875 3.83246 19.7917 4.75393 20.1875 5.7801C20.5833 6.80628 20.8125 7.8534 20.875 8.92147C20.875 9.98953 20.6617 11.0366 20.235 12.0628C19.8083 13.089 19.1883 14.0105 18.375 14.8272ZM21.375 17.8429L19.875 16.3351C20.875 15.3298 21.625 14.173 22.125 12.8645C22.625 11.556 22.875 10.2417 22.875 8.92147C22.875 7.60209 22.625 6.28817 22.125 4.97969C21.625 3.6712 20.875 2.51393 19.875 1.50785L21.375 0C22.5625 1.25654 23.4637 2.64921 24.0787 4.17801C24.6937 5.70681 25.0008 7.28796 25 8.92147C25 10.555 24.7083 12.1361 24.125 13.6649C23.5417 15.1937 22.625 16.5864 21.375 17.8429Z" fill="white"/>
</svg>
