<svg width="27" height="20" viewBox="0 0 27 20" fill="none" xmlns="http://www.w3.org/2000/svg">
<path d="M25.0615 10.303L27 12.0121L17.9585 20L13.1538 15.7576L15.0923 14.0485L17.9585 16.5697L25.0615 10.303ZM9.69231 15.7576L13.8462 19.3939H0V16.9697C0 14.2909 4.95692 12.1212 11.0769 12.1212L13.6938 12.2545L9.69231 15.7576ZM11.0769 0C12.5458 0 13.9545 0.510821 14.9932 1.42009C16.0319 2.32936 16.6154 3.56259 16.6154 4.84848C16.6154 6.13438 16.0319 7.36761 14.9932 8.27688C13.9545 9.18615 12.5458 9.69697 11.0769 9.69697C9.60803 9.69697 8.1993 9.18615 7.16064 8.27688C6.12198 7.36761 5.53846 6.13438 5.53846 4.84848C5.53846 3.56259 6.12198 2.32936 7.16064 1.42009C8.1993 0.510821 9.60803 0 11.0769 0Z" fill="white"/>
</svg>
