<svg width="25" height="25" viewBox="0 0 25 25" fill="none" xmlns="http://www.w3.org/2000/svg">
<path d="M23.9583 0H3.81944C3.24414 0 2.77778 0.699544 2.77778 1.5625V2.08333H1.04167C0.466363 2.08333 0 2.78288 0 3.64583V21.3542C0 23.3677 1.08819 25 2.43056 25H22.9167C24.0673 25 25 23.6009 25 21.875V1.5625C25 0.699544 24.5336 0 23.9583 0ZM2.43056 21.875C2.33847 21.875 2.25015 21.8201 2.18503 21.7225C2.11992 21.6248 2.08333 21.4923 2.08333 21.3542V5.20833H2.77778V21.3542C2.77778 21.4923 2.7412 21.6248 2.67608 21.7225C2.61096 21.8201 2.52264 21.875 2.43056 21.875ZM12.6736 20.8333H6.07639C5.78876 20.8333 5.55556 20.4835 5.55556 20.0521V19.5312C5.55556 19.0998 5.78876 18.75 6.07639 18.75H12.6736C12.9612 18.75 13.1944 19.0998 13.1944 19.5312V20.0521C13.1944 20.4835 12.9612 20.8333 12.6736 20.8333ZM21.7014 20.8333H15.1042C14.8165 20.8333 14.5833 20.4835 14.5833 20.0521V19.5312C14.5833 19.0998 14.8165 18.75 15.1042 18.75H21.7014C21.989 18.75 22.2222 19.0998 22.2222 19.5312V20.0521C22.2222 20.4835 21.989 20.8333 21.7014 20.8333ZM12.6736 14.5833H6.07639C5.78876 14.5833 5.55556 14.2335 5.55556 13.8021V13.2812C5.55556 12.8498 5.78876 12.5 6.07639 12.5H12.6736C12.9612 12.5 13.1944 12.8498 13.1944 13.2812V13.8021C13.1944 14.2335 12.9612 14.5833 12.6736 14.5833ZM21.7014 14.5833H15.1042C14.8165 14.5833 14.5833 14.2335 14.5833 13.8021V13.2812C14.5833 12.8498 14.8165 12.5 15.1042 12.5H21.7014C21.989 12.5 22.2222 12.8498 22.2222 13.2812V13.8021C22.2222 14.2335 21.989 14.5833 21.7014 14.5833ZM21.7014 8.33333H6.07639C5.78876 8.33333 5.55556 7.98353 5.55556 7.55208V4.94792C5.55556 4.51647 5.78876 4.16667 6.07639 4.16667H21.7014C21.989 4.16667 22.2222 4.51647 22.2222 4.94792V7.55208C22.2222 7.98353 21.989 8.33333 21.7014 8.33333Z" fill="white"/>
</svg>
