<svg width="32" height="27" viewBox="0 0 32 27" fill="none" xmlns="http://www.w3.org/2000/svg">
<path d="M8 0C4.7 0 2 2.7 2 6C2 8 3 9.8 4.5 10.8C1.8 12.2 0 14.9 0 18H2C2 14.7 4.7 12 8 12C11.3 12 14 14.7 14 18H16C16 14.8 18.6 12.1 21.8 12H22C24.5 12 26.6 10.5 27.5 8.4C27.5 8.4 27.5 8.3 27.6 8.3C27.7 8.2 27.7 8 27.7 7.9C27.7 7.8 27.7 7.8 27.8 7.7C27.8 7.6 27.9 7.4 27.9 7.3C27.9 7.2 27.9 7.1 28 7C28 6.9 28 6.8 28.1 6.7V6.1C28.1 2.8 25.4 0.0999999 22.1 0.0999999C18.8 0.0999999 16.1 2.8 16.1 6.1C16.1 8.1 17.1 9.9 18.6 10.9C17.1 11.6 15.9 12.8 15.1 14.2C14.3 12.8 13.1 11.6 11.6 10.9C13 9.8 14 8 14 6C14 2.7 11.3 0 8 0ZM8 2C10.2 2 12 3.8 12 6C12 8.2 10.2 10 8 10C5.8 10 4 8.2 4 6C4 3.8 5.8 2 8 2ZM22 2C24.2 2 26 3.8 26 6C26 8.2 24.2 10 22 10C19.8 10 18 8.2 18 6C18 3.8 19.8 2 22 2ZM24.1 13V15.1C23.5 15.2 22.9 15.5 22.4 15.8L20.9 14.3L19.5 15.7L21 17.2C20.6 17.7 20.4 18.3 20.3 19H18V21H20.1C20.2 21.6 20.5 22.2 20.8 22.8L19.3 24.3L20.7 25.7L22.2 24.2C22.7 24.5 23.3 24.8 23.9 24.9V27H25.9V24.9C26.5 24.8 27.1 24.5 27.6 24.2L29.1 25.7L30.5 24.3L29 22.8C29.4 22.3 29.6 21.7 29.7 21H32V19H29.9C29.8 18.4 29.5 17.8 29.2 17.2L30.7 15.7L29.3 14.3L27.8 15.8C27.3 15.5 26.7 15.2 26.1 15.1V13H24.1ZM25 17C26.7 17 28 18.3 28 20C28 21.7 26.7 23 25 23C23.3 23 22 21.7 22 20C22 18.3 23.3 17 25 17ZM25 19C24.8729 19.0016 24.7476 19.0309 24.633 19.086C24.514 19.1426 24.4057 19.2194 24.313 19.313C24.2194 19.4057 24.1426 19.514 24.086 19.633C24.0309 19.7476 24.0016 19.8729 24 20C24 20.125 24.031 20.25 24.086 20.367C24.141 20.484 24.219 20.594 24.313 20.687C24.406 20.781 24.516 20.859 24.633 20.914C24.7476 20.9691 24.8729 20.9984 25 21C25.5 21 26 20.5 26 20C26 19.5 25.5 19 25 19Z" fill="white"/>
</svg>
