<svg width="150" height="150" viewBox="0 0 150 150" fill="none" xmlns="http://www.w3.org/2000/svg">
<circle cx="75" cy="75" r="75" fill="#D9D9D9"/>
<circle cx="74.5" cy="74.5" r="67.5" fill="white"/>
<path d="M58.92 49.16C58.1413 49.16 57.4533 49.0587 56.856 48.856C56.2693 48.6533 55.7733 48.3547 55.368 47.96C54.9627 47.5547 54.6587 47.0533 54.456 46.456C54.2533 45.8587 54.152 45.1653 54.152 44.376V38.632C54.152 38.28 54.2373 38.0187 54.408 37.848C54.5893 37.6773 54.8453 37.592 55.176 37.592C55.5067 37.592 55.7573 37.6773 55.928 37.848C56.1093 38.0187 56.2 38.28 56.2 38.632V44.36C56.2 45.3733 56.4293 46.136 56.888 46.648C57.3573 47.1493 58.0347 47.4 58.92 47.4C59.8053 47.4 60.4773 47.1493 60.936 46.648C61.3947 46.136 61.624 45.3733 61.624 44.36V38.632C61.624 38.28 61.7093 38.0187 61.88 37.848C62.0613 37.6773 62.3173 37.592 62.648 37.592C62.968 37.592 63.2133 37.6773 63.384 37.848C63.5653 38.0187 63.656 38.28 63.656 38.632V44.376C63.656 45.4213 63.4747 46.3013 63.112 47.016C62.76 47.7307 62.232 48.2693 61.528 48.632C60.824 48.984 59.9547 49.16 58.92 49.16ZM66.8445 52.008C66.5245 52.008 66.2792 51.9227 66.1085 51.752C65.9378 51.5813 65.8525 51.3307 65.8525 51V42.056C65.8525 41.7253 65.9378 41.4747 66.1085 41.304C66.2792 41.1333 66.5192 41.048 66.8285 41.048C67.1485 41.048 67.3938 41.1333 67.5645 41.304C67.7352 41.4747 67.8205 41.7253 67.8205 42.056V43.304L67.6445 42.824C67.8045 42.28 68.1298 41.8427 68.6205 41.512C69.1218 41.1813 69.7032 41.016 70.3645 41.016C71.0472 41.016 71.6445 41.1813 72.1565 41.512C72.6792 41.8427 73.0845 42.312 73.3725 42.92C73.6605 43.5173 73.8045 44.2373 73.8045 45.08C73.8045 45.912 73.6605 46.6373 73.3725 47.256C73.0845 47.864 72.6845 48.3333 72.1725 48.664C71.6605 48.9947 71.0578 49.16 70.3645 49.16C69.7138 49.16 69.1432 49 68.6525 48.68C68.1618 48.3493 67.8312 47.9227 67.6605 47.4H67.8525V51C67.8525 51.3307 67.7618 51.5813 67.5805 51.752C67.4098 51.9227 67.1645 52.008 66.8445 52.008ZM69.8045 47.64C70.1992 47.64 70.5458 47.544 70.8445 47.352C71.1432 47.16 71.3725 46.8773 71.5325 46.504C71.7032 46.12 71.7885 45.6453 71.7885 45.08C71.7885 44.2267 71.6072 43.592 71.2445 43.176C70.8818 42.7493 70.4018 42.536 69.8045 42.536C69.4098 42.536 69.0632 42.632 68.7645 42.824C68.4658 43.0053 68.2312 43.288 68.0605 43.672C67.9005 44.0453 67.8205 44.5147 67.8205 45.08C67.8205 45.9227 68.0018 46.5627 68.3645 47C68.7272 47.4267 69.2072 47.64 69.8045 47.64ZM83.726 49.128C83.3953 49.128 83.1393 49.0373 82.958 48.856C82.7873 48.664 82.702 48.4027 82.702 48.072V39.432H79.582C79.3047 39.432 79.086 39.3573 78.926 39.208C78.7767 39.048 78.702 38.8347 78.702 38.568C78.702 38.2907 78.7767 38.0827 78.926 37.944C79.086 37.7947 79.3047 37.72 79.582 37.72H87.87C88.1473 37.72 88.3607 37.7947 88.51 37.944C88.67 38.0827 88.75 38.2907 88.75 38.568C88.75 38.8347 88.67 39.048 88.51 39.208C88.3607 39.3573 88.1473 39.432 87.87 39.432H84.75V48.072C84.75 48.4027 84.6647 48.664 84.494 48.856C84.3233 49.0373 84.0673 49.128 83.726 49.128ZM92.0455 49.16C91.2348 49.16 90.5308 48.9947 89.9335 48.664C89.3362 48.3333 88.8722 47.864 88.5415 47.256C88.2108 46.6373 88.0455 45.912 88.0455 45.08C88.0455 44.4507 88.1362 43.8907 88.3175 43.4C88.5095 42.8987 88.7815 42.472 89.1335 42.12C89.4855 41.7573 89.9068 41.4853 90.3975 41.304C90.8882 41.112 91.4375 41.016 92.0455 41.016C92.8562 41.016 93.5602 41.1813 94.1575 41.512C94.7548 41.8427 95.2188 42.312 95.5495 42.92C95.8802 43.528 96.0455 44.248 96.0455 45.08C96.0455 45.7093 95.9495 46.2747 95.7575 46.776C95.5762 47.2773 95.3095 47.7093 94.9575 48.072C94.6055 48.424 94.1842 48.696 93.6935 48.888C93.2028 49.0693 92.6535 49.16 92.0455 49.16ZM92.0455 47.64C92.4402 47.64 92.7868 47.544 93.0855 47.352C93.3842 47.16 93.6135 46.8773 93.7735 46.504C93.9442 46.12 94.0295 45.6453 94.0295 45.08C94.0295 44.2267 93.8482 43.592 93.4855 43.176C93.1228 42.7493 92.6428 42.536 92.0455 42.536C91.6508 42.536 91.3042 42.632 91.0055 42.824C90.7068 43.0053 90.4722 43.288 90.3015 43.672C90.1415 44.0453 90.0615 44.5147 90.0615 45.08C90.0615 45.9227 90.2428 46.5627 90.6055 47C90.9682 47.4267 91.4482 47.64 92.0455 47.64ZM55.192 111.128C54.8933 111.128 54.664 111.043 54.504 110.872C54.344 110.701 54.264 110.467 54.264 110.168V100.552C54.264 100.243 54.3493 100.008 54.52 99.848C54.6907 99.6773 54.9253 99.592 55.224 99.592C55.4907 99.592 55.6987 99.6453 55.848 99.752C56.008 99.848 56.152 100.019 56.28 100.264L60.232 107.576H59.72L63.672 100.264C63.8 100.019 63.9387 99.848 64.088 99.752C64.2373 99.6453 64.4453 99.592 64.712 99.592C65.0107 99.592 65.24 99.6773 65.4 99.848C65.56 100.008 65.64 100.243 65.64 100.552V110.168C65.64 110.467 65.56 110.701 65.4 110.872C65.2507 111.043 65.0213 111.128 64.712 111.128C64.4133 111.128 64.184 111.043 64.024 110.872C63.864 110.701 63.784 110.467 63.784 110.168V102.76H64.136L60.776 108.888C60.6693 109.069 60.5573 109.203 60.44 109.288C60.3227 109.373 60.1627 109.416 59.96 109.416C59.7573 109.416 59.592 109.373 59.464 109.288C59.336 109.192 59.224 109.059 59.128 108.888L55.736 102.744H56.12V110.168C56.12 110.467 56.04 110.701 55.88 110.872C55.7307 111.043 55.5013 111.128 55.192 111.128ZM72.4426 111.16C71.7813 111.16 71.2 110.995 70.6986 110.664C70.208 110.333 69.8826 109.891 69.7226 109.336L69.8986 108.936V110.104C69.8986 110.435 69.8133 110.691 69.6426 110.872C69.472 111.043 69.232 111.128 68.9226 111.128C68.6026 111.128 68.3573 111.043 68.1866 110.872C68.016 110.691 67.9306 110.435 67.9306 110.104V100.6C67.9306 100.269 68.016 100.019 68.1866 99.848C68.3573 99.6773 68.6026 99.592 68.9226 99.592C69.2426 99.592 69.488 99.6773 69.6586 99.848C69.84 100.019 69.9306 100.269 69.9306 100.6V104.76H69.7386C69.9093 104.237 70.24 103.816 70.7306 103.496C71.2213 103.176 71.792 103.016 72.4426 103.016C73.136 103.016 73.7386 103.181 74.2506 103.512C74.7626 103.843 75.1626 104.312 75.4506 104.92C75.7386 105.517 75.8826 106.237 75.8826 107.08C75.8826 107.912 75.7386 108.637 75.4506 109.256C75.1626 109.864 74.7573 110.333 74.2346 110.664C73.7226 110.995 73.1253 111.16 72.4426 111.16ZM71.8826 109.64C72.2773 109.64 72.624 109.544 72.9226 109.352C73.2213 109.16 73.4506 108.877 73.6106 108.504C73.7813 108.12 73.8666 107.645 73.8666 107.08C73.8666 106.227 73.6853 105.592 73.3226 105.176C72.96 104.749 72.48 104.536 71.8826 104.536C71.488 104.536 71.1413 104.632 70.8426 104.824C70.544 105.005 70.3093 105.288 70.1386 105.672C69.9786 106.045 69.8986 106.515 69.8986 107.08C69.8986 107.923 70.08 108.563 70.4426 109C70.8053 109.427 71.2853 109.64 71.8826 109.64ZM78.5164 114.008C78.1964 114.008 77.951 113.923 77.7804 113.752C77.6097 113.581 77.5244 113.331 77.5244 113V104.056C77.5244 103.725 77.6097 103.475 77.7804 103.304C77.951 103.133 78.191 103.048 78.5004 103.048C78.8204 103.048 79.0657 103.133 79.2364 103.304C79.407 103.475 79.4924 103.725 79.4924 104.056V105.304L79.3164 104.824C79.4764 104.28 79.8017 103.843 80.2924 103.512C80.7937 103.181 81.375 103.016 82.0364 103.016C82.719 103.016 83.3164 103.181 83.8284 103.512C84.351 103.843 84.7564 104.312 85.0444 104.92C85.3324 105.517 85.4764 106.237 85.4764 107.08C85.4764 107.912 85.3324 108.637 85.0444 109.256C84.7564 109.864 84.3564 110.333 83.8444 110.664C83.3324 110.995 82.7297 111.16 82.0364 111.16C81.3857 111.16 80.815 111 80.3244 110.68C79.8337 110.349 79.503 109.923 79.3324 109.4H79.5244V113C79.5244 113.331 79.4337 113.581 79.2524 113.752C79.0817 113.923 78.8364 114.008 78.5164 114.008ZM81.4764 109.64C81.871 109.64 82.2177 109.544 82.5164 109.352C82.815 109.16 83.0444 108.877 83.2044 108.504C83.375 108.12 83.4604 107.645 83.4604 107.08C83.4604 106.227 83.279 105.592 82.9164 105.176C82.5537 104.749 82.0737 104.536 81.4764 104.536C81.0817 104.536 80.735 104.632 80.4364 104.824C80.1377 105.005 79.903 105.288 79.7324 105.672C79.5724 106.045 79.4924 106.515 79.4924 107.08C79.4924 107.923 79.6737 108.563 80.0364 109C80.399 109.427 80.879 109.64 81.4764 109.64ZM89.9821 111.16C89.5235 111.16 89.0381 111.112 88.5261 111.016C88.0141 110.92 87.5555 110.755 87.1501 110.52C86.9795 110.413 86.8568 110.291 86.7821 110.152C86.7181 110.003 86.6915 109.859 86.7021 109.72C86.7235 109.571 86.7768 109.443 86.8621 109.336C86.9581 109.229 87.0755 109.16 87.2141 109.128C87.3635 109.096 87.5235 109.123 87.6941 109.208C88.1208 109.411 88.5208 109.555 88.8941 109.64C89.2675 109.715 89.6355 109.752 89.9981 109.752C90.5101 109.752 90.8888 109.667 91.1341 109.496C91.3901 109.315 91.5181 109.08 91.5181 108.792C91.5181 108.547 91.4328 108.36 91.2621 108.232C91.1021 108.093 90.8568 107.992 90.5261 107.928L88.9261 107.624C88.2648 107.496 87.7581 107.256 87.4061 106.904C87.0648 106.541 86.8941 106.077 86.8941 105.512C86.8941 105 87.0328 104.557 87.3101 104.184C87.5981 103.811 87.9928 103.523 88.4941 103.32C88.9955 103.117 89.5715 103.016 90.2221 103.016C90.6915 103.016 91.1288 103.069 91.5341 103.176C91.9501 103.272 92.3501 103.427 92.7341 103.64C92.8941 103.725 93.0008 103.837 93.0541 103.976C93.1181 104.115 93.1341 104.259 93.1021 104.408C93.0701 104.547 93.0061 104.675 92.9101 104.792C92.8141 104.899 92.6915 104.968 92.5421 105C92.4035 105.021 92.2435 104.989 92.0621 104.904C91.7315 104.733 91.4115 104.611 91.1021 104.536C90.8035 104.461 90.5155 104.424 90.2381 104.424C89.7155 104.424 89.3261 104.515 89.0701 104.696C88.8248 104.877 88.7021 105.117 88.7021 105.416C88.7021 105.64 88.7768 105.827 88.9261 105.976C89.0755 106.125 89.3048 106.227 89.6141 106.28L91.2141 106.584C91.9075 106.712 92.4301 106.947 92.7821 107.288C93.1448 107.629 93.3261 108.088 93.3261 108.664C93.3261 109.443 93.0221 110.056 92.4141 110.504C91.8061 110.941 90.9955 111.16 89.9821 111.16Z" fill="#252433"/>
<path d="M63.296 89.36C62 89.36 60.656 89.192 59.264 88.856C57.872 88.52 56.66 88.016 55.628 87.344C55.148 87.032 54.824 86.672 54.656 86.264C54.488 85.856 54.44 85.472 54.512 85.112C54.608 84.728 54.788 84.404 55.052 84.14C55.34 83.876 55.688 83.72 56.096 83.672C56.528 83.624 56.996 83.732 57.5 83.996C58.484 84.524 59.432 84.908 60.344 85.148C61.256 85.364 62.192 85.472 63.152 85.472C64.208 85.472 65.096 85.328 65.816 85.04C66.536 84.752 67.076 84.32 67.436 83.744C67.82 83.168 68.012 82.472 68.012 81.656C68.012 80.456 67.604 79.568 66.788 78.992C65.996 78.392 64.832 78.092 63.296 78.092H60.992C60.32 78.092 59.804 77.924 59.444 77.588C59.108 77.252 58.94 76.784 58.94 76.184C58.94 75.584 59.108 75.116 59.444 74.78C59.804 74.444 60.32 74.276 60.992 74.276H62.864C63.776 74.276 64.556 74.132 65.204 73.844C65.852 73.532 66.356 73.1 66.716 72.548C67.076 71.996 67.256 71.324 67.256 70.532C67.256 69.428 66.884 68.588 66.14 68.012C65.42 67.436 64.364 67.148 62.972 67.148C62.084 67.148 61.244 67.256 60.452 67.472C59.684 67.664 58.832 68.036 57.896 68.588C57.464 68.852 57.044 68.96 56.636 68.912C56.252 68.864 55.928 68.708 55.664 68.444C55.4 68.18 55.22 67.868 55.124 67.508C55.028 67.124 55.052 66.74 55.196 66.356C55.34 65.948 55.64 65.6 56.096 65.312C57.128 64.64 58.268 64.136 59.516 63.8C60.764 63.44 62.048 63.26 63.368 63.26C65.12 63.26 66.62 63.536 67.868 64.088C69.116 64.616 70.064 65.384 70.712 66.392C71.384 67.376 71.72 68.576 71.72 69.992C71.72 71 71.528 71.924 71.144 72.764C70.76 73.58 70.22 74.276 69.524 74.852C68.828 75.428 67.988 75.836 67.004 76.076V75.644C68.732 75.932 70.076 76.652 71.036 77.804C71.996 78.932 72.476 80.348 72.476 82.052C72.476 83.54 72.104 84.836 71.36 85.94C70.616 87.044 69.56 87.896 68.192 88.496C66.824 89.072 65.192 89.36 63.296 89.36ZM85.6019 89.36C84.3299 89.36 83.0339 89.192 81.7139 88.856C80.3939 88.52 79.1819 88.004 78.0779 87.308C77.6219 87.02 77.3099 86.684 77.1419 86.3C76.9979 85.892 76.9619 85.496 77.0339 85.112C77.1299 84.704 77.3099 84.368 77.5739 84.104C77.8619 83.816 78.1979 83.648 78.5819 83.6C78.9899 83.552 79.4339 83.66 79.9139 83.924C80.8019 84.428 81.7019 84.812 82.6139 85.076C83.5259 85.34 84.4979 85.472 85.5299 85.472C86.5379 85.472 87.4019 85.292 88.1219 84.932C88.8419 84.572 89.3939 84.068 89.7779 83.42C90.1619 82.772 90.3539 82.016 90.3539 81.152C90.3539 79.808 89.9459 78.728 89.1299 77.912C88.3139 77.072 87.1979 76.652 85.7819 76.652C85.0139 76.652 84.2699 76.784 83.5499 77.048C82.8299 77.288 82.1219 77.72 81.4259 78.344C81.2099 78.536 80.9339 78.728 80.5979 78.92C80.2619 79.088 79.9019 79.172 79.5179 79.172C78.9179 79.172 78.4619 79.016 78.1499 78.704C77.8379 78.392 77.6819 77.96 77.6819 77.408V65.636C77.6819 64.988 77.8499 64.496 78.1859 64.16C78.5459 63.8 79.0499 63.62 79.6979 63.62H91.5419C92.1899 63.62 92.6819 63.788 93.0179 64.124C93.3779 64.436 93.5579 64.904 93.5579 65.528C93.5579 66.128 93.3779 66.596 93.0179 66.932C92.6819 67.268 92.1899 67.436 91.5419 67.436H82.1819V75.5H80.9939C81.6179 74.66 82.4459 74.012 83.4779 73.556C84.5099 73.1 85.6379 72.872 86.8619 72.872C88.4699 72.872 89.8619 73.22 91.0379 73.916C92.2379 74.588 93.1619 75.536 93.8099 76.76C94.4819 77.96 94.8179 79.364 94.8179 80.972C94.8179 82.628 94.4459 84.092 93.7019 85.364C92.9579 86.612 91.8899 87.596 90.4979 88.316C89.1299 89.012 87.4979 89.36 85.6019 89.36Z" fill="#343940"/>
</svg>
