<svg width="60" height="55" viewBox="0 0 60 55" fill="none" xmlns="http://www.w3.org/2000/svg">
<mask id="path-1-inside-1_24_1873" fill="white">
<path d="M39 41.25C38.4067 41.25 37.8266 41.4113 37.3333 41.7135C36.8399 42.0156 36.4554 42.4451 36.2284 42.9476C36.0013 43.4501 35.9419 44.0031 36.0576 44.5365C36.1734 45.07 36.4591 45.56 36.8787 45.9445C37.2982 46.3291 37.8328 46.591 38.4147 46.6972C38.9967 46.8033 39.5999 46.7488 40.1481 46.5407C40.6962 46.3325 41.1648 45.9801 41.4944 45.5278C41.8241 45.0756 42 44.5439 42 44C42 43.2707 41.6839 42.5712 41.1213 42.0555C40.5587 41.5397 39.7957 41.25 39 41.25ZM21 41.25H12C11.2044 41.25 10.4413 41.5397 9.87868 42.0555C9.31607 42.5712 9 43.2707 9 44C9 44.7293 9.31607 45.4288 9.87868 45.9445C10.4413 46.4603 11.2044 46.75 12 46.75H21C21.7956 46.75 22.5587 46.4603 23.1213 45.9445C23.6839 45.4288 24 44.7293 24 44C24 43.2707 23.6839 42.5712 23.1213 42.0555C22.5587 41.5397 21.7956 41.25 21 41.25ZM48 41.25C47.4067 41.25 46.8266 41.4113 46.3333 41.7135C45.8399 42.0156 45.4554 42.4451 45.2284 42.9476C45.0013 43.4501 44.9419 44.0031 45.0576 44.5365C45.1734 45.07 45.4591 45.56 45.8787 45.9445C46.2982 46.3291 46.8328 46.591 47.4147 46.6972C47.9967 46.8033 48.5999 46.7488 49.148 46.5407C49.6962 46.3325 50.1648 45.9801 50.4944 45.5278C50.8241 45.0756 51 44.5439 51 44C51 43.2707 50.6839 42.5712 50.1213 42.0555C49.5587 41.5397 48.7957 41.25 48 41.25ZM39 24.75C38.4067 24.75 37.8266 24.9113 37.3333 25.2135C36.8399 25.5156 36.4554 25.9451 36.2284 26.4476C36.0013 26.9501 35.9419 27.503 36.0576 28.0365C36.1734 28.5699 36.4591 29.0599 36.8787 29.4445C37.2982 29.8291 37.8328 30.0911 38.4147 30.1972C38.9967 30.3033 39.5999 30.2488 40.1481 30.0407C40.6962 29.8325 41.1648 29.4801 41.4944 29.0278C41.8241 28.5756 42 28.0439 42 27.5C42 26.7707 41.6839 26.0712 41.1213 25.5555C40.5587 25.0397 39.7957 24.75 39 24.75ZM21 24.75H12C11.2044 24.75 10.4413 25.0397 9.87868 25.5555C9.31607 26.0712 9 26.7707 9 27.5C9 28.2293 9.31607 28.9288 9.87868 29.4445C10.4413 29.9603 11.2044 30.25 12 30.25H21C21.7956 30.25 22.5587 29.9603 23.1213 29.4445C23.6839 28.9288 24 28.2293 24 27.5C24 26.7707 23.6839 26.0712 23.1213 25.5555C22.5587 25.0397 21.7956 24.75 21 24.75ZM48 8.25C47.4067 8.25 46.8266 8.41128 46.3333 8.71346C45.8399 9.01563 45.4554 9.44512 45.2284 9.94762C45.0013 10.4501 44.9419 11.0031 45.0576 11.5365C45.1734 12.0699 45.4591 12.5599 45.8787 12.9445C46.2982 13.3291 46.8328 13.5911 47.4147 13.6972C47.9967 13.8033 48.5999 13.7488 49.148 13.5407C49.6962 13.3325 50.1648 12.9801 50.4944 12.5278C50.8241 12.0756 51 11.5439 51 11C51 10.2707 50.6839 9.57118 50.1213 9.05546C49.5587 8.53973 48.7957 8.25 48 8.25ZM48 24.75C47.4067 24.75 46.8266 24.9113 46.3333 25.2135C45.8399 25.5156 45.4554 25.9451 45.2284 26.4476C45.0013 26.9501 44.9419 27.503 45.0576 28.0365C45.1734 28.5699 45.4591 29.0599 45.8787 29.4445C46.2982 29.8291 46.8328 30.0911 47.4147 30.1972C47.9967 30.3033 48.5999 30.2488 49.148 30.0407C49.6962 29.8325 50.1648 29.4801 50.4944 29.0278C50.8241 28.5756 51 28.0439 51 27.5C51 26.7707 50.6839 26.0712 50.1213 25.5555C49.5587 25.0397 48.7957 24.75 48 24.75ZM60 8.25C60 6.06196 59.0518 3.96354 57.364 2.41637C55.6761 0.869194 53.3869 0 51 0H9C6.61305 0 4.32387 0.869194 2.63604 2.41637C0.948212 3.96354 0 6.06196 0 8.25V13.75C0.0132318 15.7852 0.846633 17.744 2.34 19.25C0.846633 20.756 0.0132318 22.7148 0 24.75V30.25C0.0132318 32.2851 0.846633 34.244 2.34 35.75C0.846633 37.256 0.0132318 39.2149 0 41.25V46.75C0 48.938 0.948212 51.0365 2.63604 52.5836C4.32387 54.1308 6.61305 55 9 55H51C53.3869 55 55.6761 54.1308 57.364 52.5836C59.0518 51.0365 60 48.938 60 46.75V41.25C59.9868 39.2149 59.1534 37.256 57.66 35.75C59.1534 34.244 59.9868 32.2851 60 30.25V24.75C59.9868 22.7148 59.1534 20.756 57.66 19.25C59.1534 17.744 59.9868 15.7852 60 13.75V8.25ZM54 46.75C54 47.4793 53.6839 48.1788 53.1213 48.6945C52.5587 49.2103 51.7957 49.5 51 49.5H9C8.20435 49.5 7.44129 49.2103 6.87868 48.6945C6.31607 48.1788 6 47.4793 6 46.75V41.25C6 40.5207 6.31607 39.8212 6.87868 39.3055C7.44129 38.7897 8.20435 38.5 9 38.5H51C51.7957 38.5 52.5587 38.7897 53.1213 39.3055C53.6839 39.8212 54 40.5207 54 41.25V46.75ZM54 30.25C54 30.9793 53.6839 31.6788 53.1213 32.1945C52.5587 32.7103 51.7957 33 51 33H9C8.20435 33 7.44129 32.7103 6.87868 32.1945C6.31607 31.6788 6 30.9793 6 30.25V24.75C6 24.0207 6.31607 23.3212 6.87868 22.8055C7.44129 22.2897 8.20435 22 9 22H51C51.7957 22 52.5587 22.2897 53.1213 22.8055C53.6839 23.3212 54 24.0207 54 24.75V30.25ZM54 13.75C54 14.4793 53.6839 15.1788 53.1213 15.6945C52.5587 16.2103 51.7957 16.5 51 16.5H9C8.20435 16.5 7.44129 16.2103 6.87868 15.6945C6.31607 15.1788 6 14.4793 6 13.75V8.25C6 7.52065 6.31607 6.82118 6.87868 6.30546C7.44129 5.78973 8.20435 5.5 9 5.5H51C51.7957 5.5 52.5587 5.78973 53.1213 6.30546C53.6839 6.82118 54 7.52065 54 8.25V13.75ZM39 8.25C38.4067 8.25 37.8266 8.41128 37.3333 8.71346C36.8399 9.01563 36.4554 9.44512 36.2284 9.94762C36.0013 10.4501 35.9419 11.0031 36.0576 11.5365C36.1734 12.0699 36.4591 12.5599 36.8787 12.9445C37.2982 13.3291 37.8328 13.5911 38.4147 13.6972C38.9967 13.8033 39.5999 13.7488 40.1481 13.5407C40.6962 13.3325 41.1648 12.9801 41.4944 12.5278C41.8241 12.0756 42 11.5439 42 11C42 10.2707 41.6839 9.57118 41.1213 9.05546C40.5587 8.53973 39.7957 8.25 39 8.25ZM21 8.25H12C11.2044 8.25 10.4413 8.53973 9.87868 9.05546C9.31607 9.57118 9 10.2707 9 11C9 11.7293 9.31607 12.4288 9.87868 12.9445C10.4413 13.4603 11.2044 13.75 12 13.75H21C21.7956 13.75 22.5587 13.4603 23.1213 12.9445C23.6839 12.4288 24 11.7293 24 11C24 10.2707 23.6839 9.57118 23.1213 9.05546C22.5587 8.53973 21.7956 8.25 21 8.25Z"/>
</mask>
<path d="M39 41.25C38.4067 41.25 37.8266 41.4113 37.3333 41.7135C36.8399 42.0156 36.4554 42.4451 36.2284 42.9476C36.0013 43.4501 35.9419 44.0031 36.0576 44.5365C36.1734 45.07 36.4591 45.56 36.8787 45.9445C37.2982 46.3291 37.8328 46.591 38.4147 46.6972C38.9967 46.8033 39.5999 46.7488 40.1481 46.5407C40.6962 46.3325 41.1648 45.9801 41.4944 45.5278C41.8241 45.0756 42 44.5439 42 44C42 43.2707 41.6839 42.5712 41.1213 42.0555C40.5587 41.5397 39.7957 41.25 39 41.25ZM21 41.25H12C11.2044 41.25 10.4413 41.5397 9.87868 42.0555C9.31607 42.5712 9 43.2707 9 44C9 44.7293 9.31607 45.4288 9.87868 45.9445C10.4413 46.4603 11.2044 46.75 12 46.75H21C21.7956 46.75 22.5587 46.4603 23.1213 45.9445C23.6839 45.4288 24 44.7293 24 44C24 43.2707 23.6839 42.5712 23.1213 42.0555C22.5587 41.5397 21.7956 41.25 21 41.25ZM48 41.25C47.4067 41.25 46.8266 41.4113 46.3333 41.7135C45.8399 42.0156 45.4554 42.4451 45.2284 42.9476C45.0013 43.4501 44.9419 44.0031 45.0576 44.5365C45.1734 45.07 45.4591 45.56 45.8787 45.9445C46.2982 46.3291 46.8328 46.591 47.4147 46.6972C47.9967 46.8033 48.5999 46.7488 49.148 46.5407C49.6962 46.3325 50.1648 45.9801 50.4944 45.5278C50.8241 45.0756 51 44.5439 51 44C51 43.2707 50.6839 42.5712 50.1213 42.0555C49.5587 41.5397 48.7957 41.25 48 41.25ZM39 24.75C38.4067 24.75 37.8266 24.9113 37.3333 25.2135C36.8399 25.5156 36.4554 25.9451 36.2284 26.4476C36.0013 26.9501 35.9419 27.503 36.0576 28.0365C36.1734 28.5699 36.4591 29.0599 36.8787 29.4445C37.2982 29.8291 37.8328 30.0911 38.4147 30.1972C38.9967 30.3033 39.5999 30.2488 40.1481 30.0407C40.6962 29.8325 41.1648 29.4801 41.4944 29.0278C41.8241 28.5756 42 28.0439 42 27.5C42 26.7707 41.6839 26.0712 41.1213 25.5555C40.5587 25.0397 39.7957 24.75 39 24.75ZM21 24.75H12C11.2044 24.75 10.4413 25.0397 9.87868 25.5555C9.31607 26.0712 9 26.7707 9 27.5C9 28.2293 9.31607 28.9288 9.87868 29.4445C10.4413 29.9603 11.2044 30.25 12 30.25H21C21.7956 30.25 22.5587 29.9603 23.1213 29.4445C23.6839 28.9288 24 28.2293 24 27.5C24 26.7707 23.6839 26.0712 23.1213 25.5555C22.5587 25.0397 21.7956 24.75 21 24.75ZM48 8.25C47.4067 8.25 46.8266 8.41128 46.3333 8.71346C45.8399 9.01563 45.4554 9.44512 45.2284 9.94762C45.0013 10.4501 44.9419 11.0031 45.0576 11.5365C45.1734 12.0699 45.4591 12.5599 45.8787 12.9445C46.2982 13.3291 46.8328 13.5911 47.4147 13.6972C47.9967 13.8033 48.5999 13.7488 49.148 13.5407C49.6962 13.3325 50.1648 12.9801 50.4944 12.5278C50.8241 12.0756 51 11.5439 51 11C51 10.2707 50.6839 9.57118 50.1213 9.05546C49.5587 8.53973 48.7957 8.25 48 8.25ZM48 24.75C47.4067 24.75 46.8266 24.9113 46.3333 25.2135C45.8399 25.5156 45.4554 25.9451 45.2284 26.4476C45.0013 26.9501 44.9419 27.503 45.0576 28.0365C45.1734 28.5699 45.4591 29.0599 45.8787 29.4445C46.2982 29.8291 46.8328 30.0911 47.4147 30.1972C47.9967 30.3033 48.5999 30.2488 49.148 30.0407C49.6962 29.8325 50.1648 29.4801 50.4944 29.0278C50.8241 28.5756 51 28.0439 51 27.5C51 26.7707 50.6839 26.0712 50.1213 25.5555C49.5587 25.0397 48.7957 24.75 48 24.75ZM60 8.25C60 6.06196 59.0518 3.96354 57.364 2.41637C55.6761 0.869194 53.3869 0 51 0H9C6.61305 0 4.32387 0.869194 2.63604 2.41637C0.948212 3.96354 0 6.06196 0 8.25V13.75C0.0132318 15.7852 0.846633 17.744 2.34 19.25C0.846633 20.756 0.0132318 22.7148 0 24.75V30.25C0.0132318 32.2851 0.846633 34.244 2.34 35.75C0.846633 37.256 0.0132318 39.2149 0 41.25V46.75C0 48.938 0.948212 51.0365 2.63604 52.5836C4.32387 54.1308 6.61305 55 9 55H51C53.3869 55 55.6761 54.1308 57.364 52.5836C59.0518 51.0365 60 48.938 60 46.75V41.25C59.9868 39.2149 59.1534 37.256 57.66 35.75C59.1534 34.244 59.9868 32.2851 60 30.25V24.75C59.9868 22.7148 59.1534 20.756 57.66 19.25C59.1534 17.744 59.9868 15.7852 60 13.75V8.25ZM54 46.75C54 47.4793 53.6839 48.1788 53.1213 48.6945C52.5587 49.2103 51.7957 49.5 51 49.5H9C8.20435 49.5 7.44129 49.2103 6.87868 48.6945C6.31607 48.1788 6 47.4793 6 46.75V41.25C6 40.5207 6.31607 39.8212 6.87868 39.3055C7.44129 38.7897 8.20435 38.5 9 38.5H51C51.7957 38.5 52.5587 38.7897 53.1213 39.3055C53.6839 39.8212 54 40.5207 54 41.25V46.75ZM54 30.25C54 30.9793 53.6839 31.6788 53.1213 32.1945C52.5587 32.7103 51.7957 33 51 33H9C8.20435 33 7.44129 32.7103 6.87868 32.1945C6.31607 31.6788 6 30.9793 6 30.25V24.75C6 24.0207 6.31607 23.3212 6.87868 22.8055C7.44129 22.2897 8.20435 22 9 22H51C51.7957 22 52.5587 22.2897 53.1213 22.8055C53.6839 23.3212 54 24.0207 54 24.75V30.25ZM54 13.75C54 14.4793 53.6839 15.1788 53.1213 15.6945C52.5587 16.2103 51.7957 16.5 51 16.5H9C8.20435 16.5 7.44129 16.2103 6.87868 15.6945C6.31607 15.1788 6 14.4793 6 13.75V8.25C6 7.52065 6.31607 6.82118 6.87868 6.30546C7.44129 5.78973 8.20435 5.5 9 5.5H51C51.7957 5.5 52.5587 5.78973 53.1213 6.30546C53.6839 6.82118 54 7.52065 54 8.25V13.75ZM39 8.25C38.4067 8.25 37.8266 8.41128 37.3333 8.71346C36.8399 9.01563 36.4554 9.44512 36.2284 9.94762C36.0013 10.4501 35.9419 11.0031 36.0576 11.5365C36.1734 12.0699 36.4591 12.5599 36.8787 12.9445C37.2982 13.3291 37.8328 13.5911 38.4147 13.6972C38.9967 13.8033 39.5999 13.7488 40.1481 13.5407C40.6962 13.3325 41.1648 12.9801 41.4944 12.5278C41.8241 12.0756 42 11.5439 42 11C42 10.2707 41.6839 9.57118 41.1213 9.05546C40.5587 8.53973 39.7957 8.25 39 8.25ZM21 8.25H12C11.2044 8.25 10.4413 8.53973 9.87868 9.05546C9.31607 9.57118 9 10.2707 9 11C9 11.7293 9.31607 12.4288 9.87868 12.9445C10.4413 13.4603 11.2044 13.75 12 13.75H21C21.7956 13.75 22.5587 13.4603 23.1213 12.9445C23.6839 12.4288 24 11.7293 24 11C24 10.2707 23.6839 9.57118 23.1213 9.05546C22.5587 8.53973 21.7956 8.25 21 8.25Z" fill="#E91A2F" stroke="white" stroke-width="2.6" mask="url(#path-1-inside-1_24_1873)"/>
</svg>
