<svg width="15" height="15" viewBox="0 0 15 15" fill="none" xmlns="http://www.w3.org/2000/svg">
<path d="M14.1243 9.3752C14.7011 8.4533 15.0019 7.42462 15 6.38024C15 2.85647 11.6422 0 7.5 0C3.3578 0 1.10019e-05 2.85647 1.10019e-05 6.38024C-0.00302501 7.88533 0.622376 9.34242 1.76471 10.4917L1.77354 10.5011C1.77663 10.5034 1.77927 10.5064 1.78148 10.5086H1.76471L6.2153 14.5282C6.38028 14.6772 6.57933 14.7959 6.80023 14.877C7.02112 14.9581 7.25918 15 7.49978 15C7.74038 15 7.97845 14.9581 8.19934 14.877C8.42023 14.7959 8.61928 14.6772 8.78426 14.5282L13.2353 10.5086H13.2185L13.2256 10.5015L13.2265 10.5007C13.2582 10.4685 13.29 10.4362 13.3213 10.4032C13.6273 10.0832 13.8962 9.73921 14.1243 9.3752ZM7.50221 8.81937C6.80016 8.81937 6.12688 8.58212 5.63046 8.15981C5.13404 7.73751 4.85515 7.16474 4.85515 6.56752C4.85515 5.97029 5.13404 5.39752 5.63046 4.97522C6.12688 4.55292 6.80016 4.31567 7.50221 4.31567C8.20425 4.31567 8.87754 4.55292 9.37396 4.97522C9.87038 5.39752 10.1493 5.97029 10.1493 6.56752C10.1493 7.16474 9.87038 7.73751 9.37396 8.15981C8.87754 8.58212 8.20425 8.81937 7.50221 8.81937Z" fill="#E91A2F"/>
</svg>
