<svg width="18" height="15" viewBox="0 0 18 15" fill="none" xmlns="http://www.w3.org/2000/svg">
<path d="M18 3.31409V12.1875C18 12.9049 17.7369 13.5952 17.2644 14.1171C16.792 14.6391 16.1459 14.9532 15.4584 14.9953L15.3 15H2.7C2.01131 15 1.34864 14.7259 0.847565 14.2338C0.346494 13.7416 0.0449032 13.0687 0.0045001 12.3525L0 12.1875V3.31409L8.5005 9.21751L8.6049 9.27939C8.72793 9.34201 8.86306 9.37455 9 9.37455C9.13694 9.37455 9.27207 9.34201 9.3951 9.27939L9.4995 9.21751L18 3.31409Z" fill="#E91A2F"/>
<path d="M15.3001 0C16.2721 0 17.1244 0.534374 17.5996 1.33781L9.00014 7.30967L0.400635 1.33781C0.626292 0.95603 0.936327 0.636 1.30487 0.40442C1.67342 0.172841 2.08978 0.0364276 2.51923 0.00656246L2.70013 0H15.3001Z" fill="#E91A2F"/>
</svg>
