<svg width="69" height="69" viewBox="0 0 69 69" fill="none" xmlns="http://www.w3.org/2000/svg">
<g filter="url(#filter0_d_109_320)">
<circle cx="34.5" cy="34.5" r="27.5" fill="white"/>
</g>
<path d="M28.5713 23.0562C30.0001 24.0975 31.1126 25.5187 32.0626 26.8787L32.6151 27.6837L33.1363 28.4525C33.397 28.8334 33.5085 29.2969 33.4495 29.7547C33.3905 30.2125 33.1651 30.6326 32.8163 30.935L30.3776 32.7462C30.2597 32.8313 30.1768 32.9563 30.1442 33.0979C30.1115 33.2395 30.1314 33.3881 30.2001 33.5162C30.7526 34.52 31.7351 36.015 32.8601 37.14C33.9863 38.265 35.5513 39.3125 36.6251 39.9275C36.7597 40.003 36.9182 40.0242 37.0679 39.9865C37.2176 39.9488 37.3472 39.8552 37.4301 39.725L39.0176 37.3087C39.3094 36.921 39.74 36.6613 40.219 36.5839C40.6981 36.5066 41.1885 36.6176 41.5876 36.8937L42.4163 37.4675C43.9651 38.5425 45.6288 39.7637 46.9013 41.3925C47.1031 41.6522 47.2315 41.9614 47.273 42.2877C47.3146 42.614 47.2678 42.9454 47.1376 43.2475C46.0913 45.6887 43.4438 47.7675 40.6901 47.6662L40.3151 47.645L40.0238 47.62L39.7013 47.5825L39.3501 47.535L38.9688 47.4725C38.9021 47.4604 38.8354 47.4479 38.7688 47.435L38.3488 47.345C38.2754 47.3288 38.202 47.3122 38.1288 47.295L37.6713 47.1775L37.1901 47.04L36.6876 46.8775C34.3801 46.095 31.4513 44.5575 28.4463 41.5525C25.4426 38.5487 23.9051 35.62 23.1226 33.3125L22.9601 32.81L22.8226 32.3287L22.7051 31.8712L22.6076 31.4387C22.5794 31.3033 22.5531 31.1674 22.5288 31.0312L22.4663 30.65L22.4163 30.2987L22.3801 29.9762L22.3551 29.685L22.3351 29.31C22.2338 26.565 24.3351 23.8987 26.7651 22.8575C27.0575 22.7312 27.3778 22.6831 27.6945 22.7179C28.0111 22.7528 28.3133 22.8694 28.5713 23.0562ZM38.7401 27.55L38.8851 27.5662C39.7949 27.7267 40.6307 28.1711 41.2724 28.8358C41.9142 29.5005 42.3291 30.3513 42.4576 31.2662C42.5034 31.5827 42.4262 31.9047 42.2418 32.166C42.0574 32.4272 41.78 32.6079 41.4664 32.6709C41.1529 32.7338 40.8272 32.6742 40.5563 32.5043C40.2854 32.3344 40.0899 32.0671 40.0101 31.7575L39.9813 31.6137C39.931 31.2551 39.7779 30.9187 39.5406 30.6452C39.3032 30.3717 38.9918 30.1728 38.6438 30.0725L38.4501 30.0287C38.1362 29.9731 37.8554 29.7996 37.6652 29.5438C37.475 29.2881 37.3896 28.9693 37.4267 28.6526C37.4637 28.336 37.6203 28.0455 37.8645 27.8406C38.1086 27.6356 38.4218 27.5316 38.7401 27.55ZM38.7501 23.75C40.7392 23.75 42.6468 24.5401 44.0534 25.9467C45.4599 27.3532 46.2501 29.2608 46.2501 31.25C46.2497 31.5686 46.1277 31.875 45.909 32.1067C45.6903 32.3383 45.3914 32.4778 45.0733 32.4964C44.7553 32.5151 44.4421 32.4116 44.1978 32.2071C43.9535 32.0026 43.7964 31.7126 43.7588 31.3962L43.7501 31.25C43.7505 29.9805 43.2678 28.7584 42.4 27.8319C41.5322 26.9053 40.3443 26.3438 39.0776 26.2612L38.7501 26.25C38.4185 26.25 38.1006 26.1183 37.8662 25.8838C37.6318 25.6494 37.5001 25.3315 37.5001 25C37.5001 24.6684 37.6318 24.3505 37.8662 24.1161C38.1006 23.8817 38.4185 23.75 38.7501 23.75Z" fill="#E91A2F"/>
<defs>
<filter id="filter0_d_109_320" x="0" y="0" width="69" height="69" filterUnits="userSpaceOnUse" color-interpolation-filters="sRGB">
<feFlood flood-opacity="0" result="BackgroundImageFix"/>
<feColorMatrix in="SourceAlpha" type="matrix" values="0 0 0 0 0 0 0 0 0 0 0 0 0 0 0 0 0 0 127 0" result="hardAlpha"/>
<feMorphology radius="2" operator="dilate" in="SourceAlpha" result="effect1_dropShadow_109_320"/>
<feOffset/>
<feGaussianBlur stdDeviation="2.5"/>
<feComposite in2="hardAlpha" operator="out"/>
<feColorMatrix type="matrix" values="0 0 0 0 0 0 0 0 0 0 0 0 0 0 0 0 0 0 0.25 0"/>
<feBlend mode="normal" in2="BackgroundImageFix" result="effect1_dropShadow_109_320"/>
<feBlend mode="normal" in="SourceGraphic" in2="effect1_dropShadow_109_320" result="shape"/>
</filter>
</defs>
</svg>
