<svg width="100" height="40" viewBox="0 0 100 40" fill="none" xmlns="http://www.w3.org/2000/svg">
<rect width="100" height="40" rx="20" fill="#2EBF26"/>
<path d="M14.82 26.16C14.4067 26.16 14.0867 26.0467 13.86 25.82C13.6467 25.58 13.54 25.2533 13.54 24.84V13.2C13.54 12.7733 13.6533 12.4533 13.88 12.24C14.1067 12.0133 14.4267 11.9 14.84 11.9H19.66C21.2067 11.9 22.4 12.2867 23.24 13.06C24.08 13.8333 24.5 14.9133 24.5 16.3C24.5 17.6867 24.08 18.7733 23.24 19.56C22.4 20.3333 21.2067 20.72 19.66 20.72H16.1V24.84C16.1 25.2533 15.9933 25.58 15.78 25.82C15.5667 26.0467 15.2467 26.16 14.82 26.16ZM16.1 18.7H19.26C20.1667 18.7 20.8533 18.5 21.32 18.1C21.7867 17.6867 22.02 17.0867 22.02 16.3C22.02 15.5133 21.7867 14.92 21.32 14.52C20.8533 14.12 20.1667 13.92 19.26 13.92H16.1V18.7ZM27.8669 26.16C27.4535 26.16 27.1335 26.0467 26.9069 25.82C26.6935 25.58 26.5869 25.2533 26.5869 24.84V13.2C26.5869 12.7733 26.7002 12.4533 26.9269 12.24C27.1535 12.0133 27.4735 11.9 27.8869 11.9H32.7069C34.2535 11.9 35.4469 12.2733 36.2869 13.02C37.1269 13.7533 37.5469 14.7867 37.5469 16.12C37.5469 16.9867 37.3535 17.7333 36.9669 18.36C36.5935 18.9867 36.0469 19.4667 35.3269 19.8C34.6069 20.1333 33.7335 20.3 32.7069 20.3L32.8869 20H33.5469C34.0935 20 34.5669 20.1333 34.9669 20.4C35.3802 20.6667 35.7402 21.0867 36.0469 21.66L37.5469 24.44C37.7069 24.72 37.7802 24.9933 37.7669 25.26C37.7535 25.5267 37.6535 25.7467 37.4669 25.92C37.2802 26.08 37.0069 26.16 36.6469 26.16C36.2869 26.16 35.9935 26.0867 35.7669 25.94C35.5402 25.78 35.3402 25.54 35.1669 25.22L33.1469 21.5C32.9069 21.0467 32.6202 20.7467 32.2869 20.6C31.9669 20.44 31.5535 20.36 31.0469 20.36H29.1469V24.84C29.1469 25.2533 29.0402 25.58 28.8269 25.82C28.6135 26.0467 28.2935 26.16 27.8669 26.16ZM29.1469 18.46H32.2669C33.1869 18.46 33.8802 18.2733 34.3469 17.9C34.8269 17.5133 35.0669 16.94 35.0669 16.18C35.0669 15.4333 34.8269 14.8733 34.3469 14.5C33.8802 14.1133 33.1869 13.92 32.2669 13.92H29.1469V18.46ZM46.5202 26.2C45.1602 26.2 43.9668 25.9 42.9402 25.3C41.9268 24.7 41.1402 23.86 40.5802 22.78C40.0202 21.6867 39.7402 20.4067 39.7402 18.94C39.7402 17.8333 39.9002 16.84 40.2202 15.96C40.5402 15.0667 40.9935 14.3067 41.5802 13.68C42.1802 13.04 42.8935 12.5533 43.7202 12.22C44.5602 11.8733 45.4935 11.7 46.5202 11.7C47.8935 11.7 49.0868 12 50.1002 12.6C51.1135 13.1867 51.9002 14.02 52.4602 15.1C53.0202 16.18 53.3002 17.4533 53.3002 18.92C53.3002 20.0267 53.1402 21.0267 52.8202 21.92C52.5002 22.8133 52.0402 23.58 51.4402 24.22C50.8535 24.86 50.1402 25.3533 49.3002 25.7C48.4735 26.0333 47.5468 26.2 46.5202 26.2ZM46.5202 24C47.3868 24 48.1202 23.8 48.7202 23.4C49.3335 23 49.8002 22.42 50.1202 21.66C50.4535 20.9 50.6202 19.9933 50.6202 18.94C50.6202 17.34 50.2602 16.1 49.5402 15.22C48.8335 14.34 47.8268 13.9 46.5202 13.9C45.6668 13.9 44.9335 14.1 44.3202 14.5C43.7068 14.8867 43.2335 15.46 42.9002 16.22C42.5802 16.9667 42.4202 17.8733 42.4202 18.94C42.4202 20.5267 42.7802 21.7667 43.5002 22.66C44.2202 23.5533 45.2268 24 46.5202 24ZM57.1033 26.16C56.7299 26.16 56.4433 26.0533 56.2433 25.84C56.0433 25.6267 55.9433 25.3333 55.9433 24.96V12.94C55.9433 12.5533 56.0499 12.26 56.2633 12.06C56.4766 11.8467 56.7699 11.74 57.1433 11.74C57.4766 11.74 57.7366 11.8067 57.9233 11.94C58.1233 12.06 58.3033 12.2733 58.4633 12.58L63.4033 21.72H62.7633L67.7033 12.58C67.8633 12.2733 68.0366 12.06 68.2233 11.94C68.4099 11.8067 68.6699 11.74 69.0033 11.74C69.3766 11.74 69.6633 11.8467 69.8633 12.06C70.0633 12.26 70.1633 12.5533 70.1633 12.94V24.96C70.1633 25.3333 70.0633 25.6267 69.8633 25.84C69.6766 26.0533 69.3899 26.16 69.0033 26.16C68.6299 26.16 68.3433 26.0533 68.1433 25.84C67.9433 25.6267 67.8433 25.3333 67.8433 24.96V15.7H68.2833L64.0833 23.36C63.9499 23.5867 63.8099 23.7533 63.6633 23.86C63.5166 23.9667 63.3166 24.02 63.0633 24.02C62.8099 24.02 62.6033 23.9667 62.4433 23.86C62.2833 23.74 62.1433 23.5733 62.0233 23.36L57.7833 15.68H58.2633V24.96C58.2633 25.3333 58.1633 25.6267 57.9633 25.84C57.7766 26.0533 57.4899 26.16 57.1033 26.16ZM79.5866 26.2C78.2266 26.2 77.0332 25.9 76.0066 25.3C74.9932 24.7 74.2066 23.86 73.6466 22.78C73.0866 21.6867 72.8066 20.4067 72.8066 18.94C72.8066 17.8333 72.9666 16.84 73.2866 15.96C73.6066 15.0667 74.0599 14.3067 74.6466 13.68C75.2466 13.04 75.9599 12.5533 76.7866 12.22C77.6266 11.8733 78.5599 11.7 79.5866 11.7C80.9599 11.7 82.1532 12 83.1666 12.6C84.1799 13.1867 84.9666 14.02 85.5266 15.1C86.0866 16.18 86.3666 17.4533 86.3666 18.92C86.3666 20.0267 86.2066 21.0267 85.8866 21.92C85.5666 22.8133 85.1066 23.58 84.5066 24.22C83.9199 24.86 83.2066 25.3533 82.3666 25.7C81.5399 26.0333 80.6132 26.2 79.5866 26.2ZM79.5866 24C80.4532 24 81.1866 23.8 81.7866 23.4C82.3999 23 82.8666 22.42 83.1866 21.66C83.5199 20.9 83.6866 19.9933 83.6866 18.94C83.6866 17.34 83.3266 16.1 82.6066 15.22C81.8999 14.34 80.8932 13.9 79.5866 13.9C78.7332 13.9 77.9999 14.1 77.3866 14.5C76.7732 14.8867 76.2999 15.46 75.9666 16.22C75.6466 16.9667 75.4866 17.8733 75.4866 18.94C75.4866 20.5267 75.8466 21.7667 76.5666 22.66C77.2866 23.5533 78.2932 24 79.5866 24Z" fill="white"/>
</svg>
