<svg width="59" height="59" viewBox="0 0 59 59" fill="none" xmlns="http://www.w3.org/2000/svg">
<path d="M2 15.8428C2 12.5574 2 10.9146 2.33 9.56748C2.75185 7.84791 3.56317 6.28085 4.68466 5.01949C5.80615 3.75813 7.19944 2.84562 8.72833 2.37116C9.92611 2 11.3867 2 14.3078 2H42.3333C47.4667 2 50.0333 2 51.995 3.12378C53.7197 4.11221 55.122 5.68937 56.0008 7.62922C57 9.83554 57 12.7223 57 18.4959V40.4904C57 46.2639 57 49.1507 56.0008 51.357C55.122 53.2969 53.7197 54.874 51.995 55.8625C50.0333 56.9863 47.4667 56.9863 42.3333 56.9863H36.0603" stroke="#E91A2F" stroke-width="3" stroke-linecap="round" stroke-linejoin="round"/>
<path d="M26.4444 56.9862C26.4444 49.6946 23.8691 42.7016 19.2848 37.5457C14.7006 32.3897 8.48307 29.4931 2 29.4931M2 57L3.07861 55.7834M14.2222 56.9862C14.2222 53.3404 12.9345 49.8439 10.6424 47.2659C8.35031 44.688 5.24154 43.2397 2 43.2397" stroke="#E91A2F" stroke-width="3" stroke-linecap="round" stroke-linejoin="round"/>
</svg>
