<svg width="15" height="15" viewBox="0 0 15 15" fill="none" xmlns="http://www.w3.org/2000/svg">
<path fill-rule="evenodd" clip-rule="evenodd" d="M0 7.5C0 5.51088 0.790176 3.60322 2.1967 2.1967C3.60322 0.790176 5.51088 0 7.5 0C9.48912 0 11.3968 0.790176 12.8033 2.1967C14.2098 3.60322 15 5.51088 15 7.5C15 9.48912 14.2098 11.3968 12.8033 12.8033C11.3968 14.2098 9.48912 15 7.5 15C5.51088 15 3.60322 14.2098 2.1967 12.8033C0.790176 11.3968 0 9.48912 0 7.5ZM8.25 4.5C8.25 4.30109 8.17098 4.11032 8.03033 3.96967C7.88968 3.82902 7.69891 3.75 7.5 3.75C7.30109 3.75 7.11032 3.82902 6.96967 3.96967C6.82902 4.11032 6.75 4.30109 6.75 4.5V7.5C6.75 7.725 6.825 7.875 6.975 8.025L9.225 10.275C9.36943 10.3833 9.54808 10.4359 9.72817 10.4231C9.90825 10.4103 10.0777 10.333 10.2053 10.2053C10.333 10.0777 10.4103 9.90825 10.4231 9.72817C10.4359 9.54808 10.3833 9.36943 10.275 9.225L8.25 7.2V4.5Z" fill="#E91A2F"/>
</svg>
