<svg width="40" height="40" viewBox="0 0 40 40" fill="none" xmlns="http://www.w3.org/2000/svg">
<circle cx="20" cy="20" r="20" fill="white"/>
<path d="M29.7167 31C27.1704 31 24.6497 30.45 22.1548 29.35C19.6598 28.25 17.3934 26.6815 15.3556 24.6444C13.3185 22.6074 11.75 20.3463 10.65 17.8611C9.55 15.3759 9 12.85 9 10.2833V9H16.2111L17.3417 15.1417L13.8583 18.6556C14.3065 19.45 14.8056 20.2037 15.3556 20.9167C15.9056 21.6296 16.4963 22.2917 17.1278 22.9028C17.7185 23.4935 18.3655 24.059 19.0687 24.5992C19.7719 25.1394 20.5304 25.6434 21.3444 26.1111L24.8889 22.5667L31 23.8194V31H29.7167Z" fill="#E91A2F"/>
</svg>
