<svg width="256" height="40" viewBox="0 0 256 40" fill="none" xmlns="http://www.w3.org/2000/svg">
<path d="M18.8427 5.43572L16.5982 8.14051H11.3569C12.0033 9.77433 14.1196 11.315 17.075 10.8036C17.951 10.7514 20.9064 10.3355 22.131 10.5912C23.7613 10.9376 23.0817 10.9392 26.0048 13.0175L40.5735 23.6618C41.4661 24.3603 42.6077 24.0743 43.398 23.2852C44.1882 22.4944 44.2325 21.0926 43.3399 20.3942L24.8974 7.3236C23.7429 6.5026 23.4515 5.36547 23.0531 4.05596C22.2785 1.80537 19.4301 0 16.6342 0C14.3815 0 11.9572 1.72613 11.0655 3.23905H16.5982L18.8427 5.43572ZM31.4942 25.2956L25.7937 16.5302C25.5687 16.1666 24.9997 15.4927 24.5322 15.4927H8.66428C8.19677 15.4927 7.62782 16.1666 7.4019 16.5302L1.84425 25.2956H1.70224C0.766286 25.2956 0 25.5971 0 26.427V33.9671C0 34.7971 0.766286 35.0985 1.70224 35.0985H3.6885V37.7372C3.6885 38.9821 4.55345 40 5.95785 40H6.80897C8.21429 40 9.22125 38.9821 9.22125 37.7372V35.0985H23.9752V37.7372C23.9752 38.9813 24.9822 40 26.3866 40H27.2377C28.643 40 29.508 38.9821 29.508 37.7372V35.0985H31.4942C32.4302 35.0985 33.1965 34.7971 33.1965 33.9671V26.427C33.1965 25.5971 32.4302 25.2956 31.4942 25.2956ZM4.68163 30.9511C4.39847 30.9563 4.11699 30.9114 3.85367 30.819C3.59036 30.7266 3.3505 30.5886 3.14816 30.4131C2.94583 30.2375 2.78508 30.0279 2.67533 29.7966C2.56559 29.5653 2.50907 29.317 2.50907 29.0661C2.50907 28.8152 2.56559 28.5668 2.67533 28.3355C2.78508 28.1042 2.94583 27.8946 3.14816 27.7191C3.3505 27.5435 3.59036 27.4055 3.85367 27.3131C4.11699 27.2207 4.39847 27.1758 4.68163 27.181C5.23829 27.1913 5.76824 27.3944 6.15782 27.7468C6.5474 28.0992 6.76559 28.5728 6.76559 29.0661C6.76559 29.5593 6.5474 30.0329 6.15782 30.3853C5.76824 30.7377 5.23829 30.9408 4.68163 30.9511ZM6.38387 25.2956L9.83354 18.9008C10.0429 18.53 10.598 17.9434 11.0655 17.9434H22.131C22.5985 17.9434 23.1527 18.53 23.363 18.9008L26.8126 25.2956H6.38387ZM28.5149 30.9511C27.9504 30.9511 27.4091 30.7524 27.01 30.3989C26.6108 30.0453 26.3866 29.5657 26.3866 29.0657C26.3866 28.5656 26.6108 28.086 27.01 27.7325C27.4091 27.3789 27.9504 27.1802 28.5149 27.1802C29.0793 27.1802 29.6206 27.3789 30.0198 27.7325C30.4189 28.086 30.6431 28.5656 30.6431 29.0657C30.6431 29.5657 30.4189 30.0453 30.0198 30.3989C29.6206 30.7524 29.0793 30.9511 28.5149 30.9511Z" fill="white"/>
<path d="M36.8906 13.25V8H57.75V13.25H50.5313V32H44.1094V13.25H36.8906ZM58.4268 32V14H64.708V17.4219H64.8955C65.2236 16.1562 65.7432 15.2305 66.4541 14.6445C67.1729 14.0586 68.0127 13.7656 68.9736 13.7656C69.2549 13.7656 69.5322 13.7891 69.8057 13.8359C70.0869 13.875 70.3564 13.9336 70.6143 14.0117V19.5313C70.2939 19.4219 69.8994 19.3398 69.4307 19.2852C68.9619 19.2305 68.5596 19.2031 68.2236 19.2031C67.5908 19.2031 67.0205 19.3477 66.5127 19.6367C66.0127 19.918 65.6182 20.3164 65.3291 20.832C65.04 21.3398 64.8955 21.9375 64.8955 22.625V32H58.4268ZM76.9131 32.2813C75.7646 32.2813 74.749 32.0938 73.8662 31.7187C72.9912 31.3359 72.3037 30.7578 71.8037 29.9844C71.3037 29.2109 71.0537 28.2266 71.0537 27.0312C71.0537 26.0469 71.2217 25.207 71.5576 24.5117C71.8936 23.8086 72.3623 23.2344 72.9639 22.7891C73.5654 22.3437 74.2646 22.0039 75.0615 21.7695C75.8662 21.5352 76.7334 21.3828 77.6631 21.3125C78.6709 21.2344 79.4795 21.1406 80.0889 21.0312C80.7061 20.9141 81.1514 20.7539 81.4248 20.5508C81.6982 20.3398 81.835 20.0625 81.835 19.7187V19.6719C81.835 19.2031 81.6553 18.8437 81.2959 18.5938C80.9365 18.3437 80.4756 18.2187 79.9131 18.2187C79.2959 18.2187 78.792 18.3555 78.4014 18.6289C78.0186 18.8945 77.7881 19.3047 77.71 19.8594H71.7568C71.835 18.7656 72.1826 17.7578 72.7998 16.8359C73.4248 15.9062 74.335 15.1641 75.5303 14.6094C76.7256 14.0469 78.2178 13.7656 80.0068 13.7656C81.2959 13.7656 82.4521 13.918 83.4756 14.2227C84.499 14.5195 85.3701 14.9375 86.0889 15.4766C86.8076 16.0078 87.3545 16.6328 87.7295 17.3516C88.1123 18.0625 88.3037 18.8359 88.3037 19.6719V32H82.2568V29.4687H82.1162C81.7568 30.1406 81.3193 30.6836 80.8037 31.0977C80.2959 31.5117 79.7139 31.8125 79.0576 32C78.4092 32.1875 77.6943 32.2813 76.9131 32.2813ZM79.0225 28.2031C79.5146 28.2031 79.9756 28.1016 80.4053 27.8984C80.8428 27.6953 81.1982 27.4023 81.4717 27.0195C81.7451 26.6367 81.8818 26.1719 81.8818 25.625V24.125C81.71 24.1953 81.5264 24.2617 81.3311 24.3242C81.1436 24.3867 80.9404 24.4453 80.7217 24.5C80.5107 24.5547 80.2842 24.6055 80.042 24.6523C79.8076 24.6992 79.5615 24.7422 79.3037 24.7812C78.8037 24.8594 78.3936 24.9883 78.0732 25.168C77.7607 25.3398 77.5264 25.5547 77.3701 25.8125C77.2217 26.0625 77.1475 26.3437 77.1475 26.6562C77.1475 27.1562 77.3232 27.5391 77.6748 27.8047C78.0264 28.0703 78.4756 28.2031 79.0225 28.2031ZM97.8633 21.875V32H91.3945V14H97.5352V17.4219H97.7227C98.1133 16.2812 98.8008 15.3867 99.7852 14.7383C100.777 14.0898 101.934 13.7656 103.254 13.7656C104.527 13.7656 105.633 14.0586 106.57 14.6445C107.516 15.2227 108.246 16.0195 108.762 17.0352C109.285 18.0508 109.543 19.2109 109.535 20.5156V32H103.066V21.875C103.074 20.9844 102.848 20.2852 102.387 19.7773C101.934 19.2695 101.301 19.0156 100.488 19.0156C99.957 19.0156 99.4922 19.1328 99.0937 19.3672C98.7031 19.5937 98.4023 19.9219 98.1914 20.3516C97.9805 20.7734 97.8711 21.2812 97.8633 21.875ZM129.182 19.8594H123.229C123.197 19.4922 123.068 19.1758 122.842 18.9102C122.615 18.6445 122.322 18.4414 121.963 18.3008C121.611 18.1523 121.221 18.0781 120.791 18.0781C120.236 18.0781 119.76 18.1797 119.361 18.3828C118.963 18.5859 118.768 18.875 118.775 19.25C118.768 19.5156 118.881 19.7617 119.115 19.9883C119.357 20.2148 119.822 20.3906 120.51 20.5156L124.166 21.1719C126.01 21.5078 127.381 22.0742 128.279 22.8711C129.186 23.6602 129.643 24.7187 129.65 26.0469C129.643 27.3281 129.26 28.4414 128.502 29.3867C127.752 30.3242 126.725 31.0508 125.42 31.5664C124.123 32.0742 122.643 32.3281 120.979 32.3281C118.229 32.3281 116.076 31.7656 114.521 30.6406C112.975 29.5156 112.111 28.0312 111.932 26.1875H118.354C118.439 26.7578 118.721 27.1992 119.197 27.5117C119.682 27.8164 120.291 27.9687 121.025 27.9687C121.619 27.9687 122.107 27.8672 122.49 27.6641C122.881 27.4609 123.08 27.1719 123.088 26.7969C123.08 26.4531 122.908 26.1797 122.572 25.9766C122.244 25.7734 121.729 25.6094 121.025 25.4844L117.838 24.9219C116.002 24.6016 114.627 23.9922 113.713 23.0937C112.799 22.1953 112.346 21.0391 112.354 19.625C112.346 18.375 112.674 17.3164 113.338 16.4492C114.01 15.5742 114.967 14.9102 116.209 14.457C117.459 13.9961 118.939 13.7656 120.65 13.7656C123.252 13.7656 125.303 14.3047 126.803 15.3828C128.311 16.4609 129.104 17.9531 129.182 19.8594ZM132.129 38.75V14H138.551V17.1406H138.691C138.926 16.5312 139.27 15.9727 139.723 15.4648C140.176 14.9492 140.738 14.5391 141.41 14.2344C142.082 13.9219 142.863 13.7656 143.754 13.7656C144.941 13.7656 146.07 14.082 147.141 14.7148C148.219 15.3477 149.094 16.3437 149.766 17.7031C150.445 19.0625 150.785 20.8281 150.785 23C150.785 25.0781 150.461 26.8008 149.812 28.168C149.172 29.5352 148.312 30.5547 147.234 31.2266C146.164 31.8984 144.988 32.2344 143.707 32.2344C142.863 32.2344 142.109 32.0977 141.445 31.8242C140.789 31.543 140.227 31.1641 139.758 30.6875C139.297 30.2031 138.941 29.6562 138.691 29.0469H138.598V38.75H132.129ZM138.457 23C138.457 23.875 138.57 24.6328 138.797 25.2734C139.031 25.9062 139.359 26.3984 139.781 26.75C140.211 27.0938 140.723 27.2656 141.316 27.2656C141.91 27.2656 142.414 27.0977 142.828 26.7617C143.25 26.418 143.57 25.9297 143.789 25.2969C144.016 24.6562 144.129 23.8906 144.129 23C144.129 22.1094 144.016 21.3477 143.789 20.7148C143.57 20.0742 143.25 19.5859 142.828 19.25C142.414 18.9062 141.91 18.7344 141.316 18.7344C140.723 18.7344 140.211 18.9062 139.781 19.25C139.359 19.5859 139.031 20.0742 138.797 20.7148C138.57 21.3477 138.457 22.1094 138.457 23ZM162.167 32.3281C160.214 32.3281 158.542 31.9414 157.151 31.168C155.761 30.3867 154.694 29.3008 153.952 27.9102C153.21 26.5117 152.839 24.8906 152.839 23.0469C152.839 21.2031 153.21 19.5859 153.952 18.1953C154.694 16.7969 155.761 15.7109 157.151 14.9375C158.542 14.1562 160.214 13.7656 162.167 13.7656C164.12 13.7656 165.792 14.1562 167.183 14.9375C168.573 15.7109 169.64 16.7969 170.382 18.1953C171.124 19.5859 171.495 21.2031 171.495 23.0469C171.495 24.8906 171.124 26.5117 170.382 27.9102C169.64 29.3008 168.573 30.3867 167.183 31.168C165.792 31.9414 164.12 32.3281 162.167 32.3281ZM162.214 27.5469C162.761 27.5469 163.233 27.3633 163.632 26.9961C164.03 26.6289 164.339 26.1055 164.558 25.4258C164.776 24.7461 164.886 23.9375 164.886 23C164.886 22.0547 164.776 21.2461 164.558 20.5742C164.339 19.8945 164.03 19.3711 163.632 19.0039C163.233 18.6367 162.761 18.4531 162.214 18.4531C161.636 18.4531 161.14 18.6367 160.726 19.0039C160.312 19.3711 159.995 19.8945 159.776 20.5742C159.558 21.2461 159.448 22.0547 159.448 23C159.448 23.9375 159.558 24.7461 159.776 25.4258C159.995 26.1055 160.312 26.6289 160.726 26.9961C161.14 27.3633 161.636 27.5469 162.214 27.5469ZM174.12 32V14H180.401V17.4219H180.589C180.917 16.1562 181.437 15.2305 182.147 14.6445C182.866 14.0586 183.706 13.7656 184.667 13.7656C184.948 13.7656 185.226 13.7891 185.499 13.8359C185.78 13.875 186.05 13.9336 186.308 14.0117V19.5313C185.987 19.4219 185.593 19.3398 185.124 19.2852C184.655 19.2305 184.253 19.2031 183.917 19.2031C183.284 19.2031 182.714 19.3477 182.206 19.6367C181.706 19.918 181.312 20.3164 181.022 20.832C180.733 21.3398 180.589 21.9375 180.589 22.625V32H174.12ZM199.904 14V18.6875H188.045V14H199.904ZM190.342 9.6875H196.811V26.2109C196.811 26.4609 196.854 26.6719 196.939 26.8438C197.025 27.0078 197.158 27.1328 197.338 27.2187C197.518 27.2969 197.748 27.3359 198.029 27.3359C198.225 27.3359 198.451 27.3125 198.709 27.2656C198.975 27.2187 199.17 27.1797 199.295 27.1484L200.232 31.6953C199.943 31.7812 199.529 31.8867 198.99 32.0117C198.459 32.1367 197.826 32.2188 197.092 32.2578C195.607 32.3359 194.361 32.1836 193.354 31.8008C192.346 31.4102 191.588 30.7969 191.08 29.9609C190.572 29.125 190.326 28.0781 190.342 26.8203V9.6875ZM209.013 21.875V32H202.544V14H208.685V17.4219H208.872C209.263 16.2812 209.95 15.3867 210.935 14.7383C211.927 14.0898 213.083 13.7656 214.403 13.7656C215.677 13.7656 216.782 14.0586 217.72 14.6445C218.665 15.2227 219.396 16.0195 219.911 17.0352C220.435 18.0508 220.692 19.2109 220.685 20.5156V32H214.216V21.875C214.224 20.9844 213.997 20.2852 213.536 19.7773C213.083 19.2695 212.45 19.0156 211.638 19.0156C211.106 19.0156 210.642 19.1328 210.243 19.3672C209.853 19.5937 209.552 19.9219 209.341 20.3516C209.13 20.7734 209.021 21.2812 209.013 21.875ZM232.503 32.3281C230.581 32.3281 228.925 31.9609 227.534 31.2266C226.151 30.4844 225.085 29.4219 224.335 28.0391C223.593 26.6484 223.222 24.9844 223.222 23.0469C223.222 21.1875 223.597 19.5625 224.347 18.1719C225.097 16.7812 226.155 15.6992 227.522 14.9258C228.89 14.1523 230.503 13.7656 232.362 13.7656C233.722 13.7656 234.952 13.9766 236.054 14.3984C237.155 14.8203 238.097 15.4336 238.878 16.2383C239.659 17.0352 240.261 18.0039 240.683 19.1445C241.104 20.2852 241.315 21.5703 241.315 23V24.5H225.237V20.9375H235.362C235.354 20.4219 235.222 19.9687 234.964 19.5781C234.714 19.1797 234.374 18.8711 233.944 18.6523C233.522 18.4258 233.042 18.3125 232.503 18.3125C231.979 18.3125 231.499 18.4258 231.062 18.6523C230.624 18.8711 230.272 19.1758 230.007 19.5664C229.749 19.957 229.612 20.4141 229.597 20.9375V24.7812C229.597 25.3594 229.718 25.875 229.96 26.3281C230.202 26.7813 230.55 27.1367 231.003 27.3945C231.456 27.6523 232.003 27.7813 232.644 27.7813C233.089 27.7813 233.495 27.7187 233.862 27.5937C234.237 27.4687 234.558 27.2891 234.823 27.0547C235.089 26.8125 235.284 26.5234 235.409 26.1875H241.315C241.112 27.4375 240.632 28.5234 239.874 29.4453C239.116 30.3594 238.112 31.0703 236.862 31.5781C235.62 32.0781 234.167 32.3281 232.503 32.3281ZM254.689 14V18.6875H242.83V14H254.689ZM245.127 9.6875H251.596V26.2109C251.596 26.4609 251.639 26.6719 251.725 26.8438C251.811 27.0078 251.943 27.1328 252.123 27.2187C252.303 27.2969 252.533 27.3359 252.814 27.3359C253.01 27.3359 253.236 27.3125 253.494 27.2656C253.76 27.2187 253.955 27.1797 254.08 27.1484L255.018 31.6953C254.729 31.7812 254.314 31.8867 253.775 32.0117C253.244 32.1367 252.611 32.2188 251.877 32.2578C250.393 32.3359 249.146 32.1836 248.139 31.8008C247.131 31.4102 246.373 30.7969 245.865 29.9609C245.357 29.125 245.111 28.0781 245.127 26.8203V9.6875Z" fill="white"/>
</svg>
