<svg width="40" height="40" viewBox="0 0 40 40" fill="none" xmlns="http://www.w3.org/2000/svg">
<circle cx="20" cy="20" r="20" fill="white"/>
<path d="M7 17.5V27.5C7 28.163 7.27393 28.7989 7.76152 29.2678C8.24912 29.7366 8.91044 30 9.6 30H30.4C31.0896 30 31.7509 29.7366 32.2385 29.2678C32.7261 28.7989 33 28.163 33 27.5V17.5L20 22.5L7 17.5Z" fill="#E91A2F"/>
<path d="M9.6 10C8.91044 10 8.24912 10.2634 7.76152 10.7322C7.27393 11.2011 7 11.837 7 12.5L7 15L20 20L33 15V12.5C33 11.837 32.7261 11.2011 32.2385 10.7322C31.7509 10.2634 31.0896 10 30.4 10H9.6Z" fill="#E91A2F"/>
</svg>
