<svg width="40" height="40" viewBox="0 0 40 40" fill="none" xmlns="http://www.w3.org/2000/svg">
<circle cx="20" cy="20" r="20" fill="white"/>
<path fill-rule="evenodd" clip-rule="evenodd" d="M7 20C7 16.5522 8.36964 13.2456 10.8076 10.8076C13.2456 8.36964 16.5522 7 20 7C23.4478 7 26.7544 8.36964 29.1924 10.8076C31.6304 13.2456 33 16.5522 33 20C33 23.4478 31.6304 26.7544 29.1924 29.1924C26.7544 31.6304 23.4478 33 20 33C16.5522 33 13.2456 31.6304 10.8076 29.1924C8.36964 26.7544 7 23.4478 7 20ZM21.3 14.8C21.3 14.4552 21.163 14.1246 20.9192 13.8808C20.6754 13.637 20.3448 13.5 20 13.5C19.6552 13.5 19.3246 13.637 19.0808 13.8808C18.837 14.1246 18.7 14.4552 18.7 14.8V20C18.7 20.39 18.83 20.65 19.09 20.91L22.99 24.81C23.2403 24.9978 23.55 25.0889 23.8622 25.0667C24.1743 25.0445 24.468 24.9105 24.6892 24.6892C24.9105 24.468 25.0445 24.1743 25.0667 23.8622C25.0889 23.55 24.9978 23.2403 24.81 22.99L21.3 19.48V14.8Z" fill="#E91A2F"/>
</svg>
